<svg width="3652" height="2296" viewBox="0 0 3652 2296" fill="none" xmlns="http://www.w3.org/2000/svg">
<path fill-rule="evenodd" clip-rule="evenodd" d="M1832.87 0.445096C1817.86 2.2571 1798.24 7.63208 1790 12.1881C1786.42 14.1631 1780.94 17.1601 1777.8 18.8471C1770.69 22.6781 1764.84 27.5031 1754 38.4891C1744.85 47.7621 1735.29 60.0711 1733.48 64.9141C1731.97 68.9661 1730.36 72.5571 1726.14 81.2971C1724.18 85.3581 1722.48 89.4081 1722.36 90.2971C1722.23 91.1861 1721.64 94.3891 1721.05 97.4141C1719.12 107.153 1717 127.611 1717 136.384C1717 145.668 1719.32 167.648 1721.51 179.126C1722.27 183.092 1724.41 189.842 1726.28 194.126C1728.15 198.409 1730.48 204.389 1731.47 207.414C1733.98 215.07 1734.5 216.099 1741.92 227.821C1749.97 240.537 1753.97 245.469 1765.12 256.414C1774.07 265.194 1789.07 275.635 1796.34 278.15C1804.19 280.861 1819.94 282.667 1830 282.009C1854.2 280.426 1862.41 278.568 1873.5 272.162C1888.87 263.287 1891.21 261.855 1892.82 260.37C1893.74 259.521 1896.97 256.989 1900 254.743C1913.52 244.702 1930.24 225.929 1935.43 214.963C1936.88 211.911 1938.41 209.414 1938.84 209.414C1940.37 209.414 1944.1 201.414 1946.07 193.901C1947.16 189.716 1948.44 185.531 1948.91 184.603C1954.46 173.539 1955.95 164.594 1955.98 142.183C1956.01 118.839 1955.12 113.463 1947.03 87.9141C1946.51 86.2641 1945.85 83.5201 1945.55 81.8161C1944.78 77.3001 1942.26 71.6041 1938.52 65.9141C1936.71 63.1641 1934.5 59.1581 1933.6 57.0121C1931.08 50.9641 1919.71 36.3221 1911.72 28.8381C1900.65 18.4671 1883.69 7.95208 1874.8 5.95508C1873.54 5.67008 1870.7 5.0291 1868.5 4.5311C1849.2 0.157095 1842.04 -0.663904 1832.87 0.445096ZM1815.75 300.961C1813.13 301.676 1803.91 302.994 1795.25 303.891C1775.1 305.977 1772.93 306.46 1758.5 312.043C1738.69 319.711 1736.6 320.59 1734 322.39C1732.62 323.34 1727.67 326.082 1723 328.482C1718.32 330.883 1711.86 334.775 1708.64 337.13C1705.42 339.486 1702.31 341.414 1701.73 341.414C1701.15 341.414 1698.14 343.776 1695.05 346.664C1691.95 349.552 1685.38 355.352 1680.46 359.553C1675.53 363.755 1670.15 369.032 1668.5 371.28C1666.85 373.528 1664.97 375.377 1664.33 375.39C1663.69 375.403 1661.82 377.111 1660.18 379.185C1658.54 381.26 1655.24 385.039 1652.85 387.584C1645.31 395.605 1638.46 403.788 1636.23 407.414C1635.06 409.339 1632.81 412.106 1631.24 413.562C1629.68 415.019 1626.03 420.074 1623.13 424.795C1620.24 429.516 1617.45 433.637 1616.94 433.953C1616.42 434.27 1614.62 437.397 1612.93 440.902C1611.24 444.407 1608.85 448.366 1607.61 449.698C1605.35 452.136 1604.21 454.275 1599.73 464.452C1598.39 467.498 1596.17 471.206 1594.79 472.693C1593.41 474.18 1591.29 478.435 1590.07 482.149C1587.82 489.001 1584.49 495.862 1582.28 498.2C1581.62 498.907 1579.67 503.857 1577.96 509.2C1576.25 514.543 1573.81 520.939 1572.55 523.414C1568.9 530.563 1567.3 535.315 1565.47 544.414C1564.53 549.089 1562.21 557.639 1560.32 563.414C1556.66 574.606 1554.83 584.228 1553.02 601.914C1551.53 616.429 1549.3 631.381 1547.42 639.414C1545.24 648.78 1544.24 660.355 1542.09 701.063C1540.56 730.228 1539.86 737.908 1538.48 740.813C1537.54 742.794 1536.63 744.414 1536.47 744.414C1536.3 744.414 1533.54 745.059 1530.33 745.847C1527.12 746.635 1521.35 747.537 1517.5 747.851C1509.89 748.471 1500.54 750.089 1486.5 753.213C1476.91 755.346 1456.27 757.957 1441.58 758.893C1436.67 759.206 1431.72 759.678 1430.58 759.943C1429.44 760.207 1424.9 760.849 1420.5 761.369C1416.1 761.889 1409.8 762.954 1406.5 763.734C1391.89 767.19 1385.77 768.386 1377.42 769.41C1372.51 770.011 1367.37 770.677 1366 770.89C1364.62 771.103 1360.35 771.583 1356.5 771.957C1352.65 772.331 1347.25 773.255 1344.5 774.01C1341.75 774.765 1335.63 776.464 1330.9 777.784C1326.17 779.105 1316.95 780.944 1310.4 781.872C1303.86 782.8 1296.81 783.976 1294.75 784.486C1285.03 786.892 1282.21 787.751 1278.41 789.467C1274.21 791.365 1267.03 793.35 1256.5 795.524C1253.2 796.205 1247.12 798.449 1243 800.511C1238.87 802.573 1232.6 805.004 1229.06 805.914C1225.52 806.823 1220.84 808.545 1218.67 809.741C1207.44 815.917 1202.45 818.414 1201.32 818.414C1200.63 818.414 1197.88 820.326 1195.2 822.664C1192.53 825.002 1188.5 828.264 1186.24 829.914C1183.99 831.564 1181.47 834.039 1180.63 835.414C1179.8 836.789 1177.85 839.255 1176.31 840.893C1172.36 845.087 1172.49 852.645 1176.63 858.554C1178.21 860.809 1180.85 864.639 1182.5 867.066C1185.24 871.1 1202.54 887.414 1204.08 887.414C1204.44 887.414 1208.41 889.861 1212.91 892.851C1217.83 896.129 1224.19 899.297 1228.91 900.825C1233.22 902.221 1239.77 904.761 1243.46 906.471C1247.16 908.18 1251.25 909.773 1252.56 910.01C1257.68 910.939 1279.19 917.462 1282.11 918.971C1285.89 920.927 1285.53 920.841 1307 924.983C1316.62 926.84 1325.48 928.797 1326.68 929.332C1327.87 929.867 1332.6 931.179 1337.18 932.249C1345.2 934.125 1348.73 934.669 1374.2 937.958C1380.63 938.789 1389.4 940.404 1393.7 941.548C1407.16 945.137 1425.77 947.906 1450 949.928C1464.52 951.139 1476.66 952.606 1479.37 953.474C1485.11 955.313 1499.9 957.391 1518 958.904C1539.35 960.688 1570.55 963.966 1580 965.418C1587.67 966.597 1597.34 967.554 1605 967.892C1628.07 968.909 1640.14 969.534 1644 969.911C1646.47 970.153 1659.52 970.641 1673 970.996C1686.47 971.351 1698.19 971.771 1699.04 971.93C1699.89 972.09 1723.07 972.502 1750.54 972.848C1778.02 973.193 1804.77 973.686 1810 973.943C1837.62 975.302 1906.36 974.538 1950 972.387C1960.72 971.858 1974.45 971.195 1980.5 970.913C1986.55 970.631 1992.62 970.21 1994 969.976C1995.37 969.742 2000.55 969.285 2005.5 968.96C2013.41 968.442 2024.53 966.421 2029 964.692C2030.61 964.07 2031.56 963.868 2037 962.987C2045.19 961.663 2046.76 961.325 2051.8 959.8C2054.71 958.918 2059.21 956.686 2061.8 954.84C2064.38 952.994 2068.33 950.617 2070.58 949.558C2075.66 947.156 2090.61 934.016 2091.31 931.327C2091.7 929.839 2090.9 928.722 2088.17 926.925L2084.5 924.518L1985.5 924.091C1924.66 923.828 1883.03 923.253 1877.5 922.599C1872.55 922.013 1864.9 921.265 1860.5 920.936C1856.1 920.607 1851.37 920.143 1850 919.904C1848.62 919.665 1844.8 919.211 1841.5 918.896C1838.2 918.58 1832.35 917.897 1828.5 917.377C1821.39 916.416 1796.46 914.036 1781 912.842C1773.51 912.263 1757.24 908.155 1752.26 905.588C1750.37 904.612 1744.45 903.525 1726.5 900.855C1713.85 898.974 1710.95 897.709 1703.01 890.592C1697.86 885.973 1697.58 885.499 1698.53 882.794C1699.14 881.06 1700.92 879.23 1703.02 878.194C1704.93 877.248 1709.2 875.177 1712.5 873.592C1715.8 872.008 1720.3 869.754 1722.5 868.584C1724.7 867.414 1732.12 865.315 1739 863.919C1745.87 862.524 1754.42 860.294 1758 858.963C1765.65 856.117 1776.62 853.911 1790.5 852.431C1803.39 851.056 1812 849.809 1825 847.437C1839.81 844.734 1882.05 840.946 1919.5 838.964C1925.55 838.644 1935.45 838.051 1941.5 837.648C1947.55 837.244 1982.87 836.983 2020 837.066C2109.99 837.269 2121.15 837.288 2123.5 837.24C2124.6 837.217 2129.77 837.312 2135 837.45C2142.99 837.661 2145.29 837.349 2149.5 835.486C2159.2 831.189 2161.16 829.994 2163.17 827.172L2165.2 824.323L2162.35 817.277C2158.38 807.474 2145.15 792.178 2131.5 781.622C2128.2 779.069 2125.34 776.607 2125.15 776.151C2124.96 775.694 2122.03 773.568 2118.64 771.427C2115.25 769.286 2110.99 765.863 2109.19 763.82C2103.15 757.004 2102.77 755.152 2102.39 730.414C2101.34 664.046 2098.01 614.127 2093.47 596.914C2092.32 592.536 2090.95 585.544 2088.38 570.914C2087.39 565.294 2087.4 565.308 2085.54 558.786C2084.63 555.556 2083.02 550.592 2081.98 547.754C2079.92 542.111 2076 527.008 2076 524.683C2076 523.883 2074.2 519.663 2072.01 515.306C2069.81 510.949 2067.08 504.578 2065.94 501.149C2064.79 497.72 2061.64 490.244 2058.93 484.535C2056.22 478.827 2054 473.613 2054 472.948C2054 472.283 2050.85 465.612 2047 458.124C2043.15 450.636 2040 443.986 2040 443.346C2040 442.706 2038.45 440.073 2036.56 437.494C2034.67 434.916 2031.24 429.231 2028.95 424.86C2026.66 420.49 2023.53 415.564 2022.01 413.914C2020.48 412.264 2018.1 409.071 2016.7 406.819C2015.31 404.567 2012.74 401.192 2010.99 399.319C2009.24 397.446 2006.71 394.201 2005.36 392.108C2002.39 387.503 1971.11 356.021 1965.5 351.986C1963.3 350.404 1959.92 347.675 1958 345.922C1956.07 344.168 1952.46 341.578 1949.98 340.165C1947.49 338.752 1944.31 336.453 1942.91 335.056C1941.52 333.658 1937.14 330.968 1933.2 329.077C1929.25 327.186 1923.82 324.224 1921.13 322.496C1918.43 320.767 1912.01 317.989 1906.86 316.324C1901.71 314.658 1895.59 312.178 1893.25 310.812C1890.91 309.447 1889 308.629 1889 308.994C1889 309.36 1888.42 309.178 1887.71 308.589C1886.34 307.454 1879.19 306.171 1864.5 304.424C1859.55 303.836 1851.34 302.468 1846.27 301.384C1835.81 299.154 1823.01 298.977 1815.75 300.961ZM1922.5 437.523C1929.62 439.353 1948.25 449.34 1957.99 456.546C1967.73 463.75 1986.98 482.551 1997.31 494.942C2004.6 503.689 2017.37 521.279 2019.58 525.628C2020.5 527.435 2022.72 530.939 2024.51 533.414C2026.3 535.889 2028.74 540.164 2029.93 542.914C2033.71 551.588 2034.37 552.825 2037.3 556.662C2039.09 559.005 2041.01 563.691 2042.42 569.162C2043.67 573.976 2046.53 581.739 2048.79 586.414C2051.4 591.831 2053.27 597.453 2053.94 601.914C2056.22 617.043 2057.17 621.277 2060.46 630.914C2064.92 643.95 2065.74 651.758 2066.52 688.414C2067.39 728.824 2066.07 739.925 2060.12 742.344C2055.8 744.1 2046 743.99 2037.52 742.089C2027.45 739.833 1991.38 736.962 1947.5 734.925C1928.8 734.057 1911.02 733.141 1908 732.891C1904.97 732.641 1894.4 732.188 1884.5 731.884C1874.6 731.58 1857.27 730.619 1846 729.748C1825.24 728.145 1802.88 728.38 1789 730.347C1785.42 730.854 1774.4 731.527 1764.5 731.842C1754.6 732.158 1741.32 732.646 1735 732.926C1718.9 733.64 1668.18 735.321 1645.5 735.893C1626.72 736.367 1596.31 737.456 1590.5 737.863C1584.86 738.257 1582.13 736.607 1580.9 732.071C1579.83 728.115 1580.13 716.823 1581.45 711.414C1581.78 710.039 1582.28 705.089 1582.56 700.414C1582.83 695.739 1583.5 688.989 1584.03 685.414C1584.57 681.839 1585.71 673.064 1586.56 665.914C1587.41 658.764 1588.35 651.789 1588.64 650.414C1588.94 649.039 1589.55 645.53 1590.01 642.616C1590.47 639.702 1591.95 634.077 1593.31 630.116C1594.67 626.155 1596.55 619.539 1597.5 615.414C1601.59 597.497 1603.26 591.642 1605.91 585.957C1607.46 582.634 1609.99 575.925 1611.55 571.049C1613.1 566.174 1615.76 559.874 1617.46 557.049C1619.16 554.225 1621.83 548.417 1623.38 544.142C1624.94 539.868 1627.2 534.918 1628.4 533.142C1629.59 531.367 1632.28 526.847 1634.37 523.098C1639.95 513.096 1648.34 501.05 1656.38 491.519C1665.68 480.498 1683.32 462.97 1688.99 459.112C1691.47 457.429 1695.16 454.653 1697.18 452.945C1699.21 451.236 1703.48 448.776 1706.68 447.477C1709.88 446.178 1715.19 443.802 1718.49 442.198C1726.17 438.452 1734.76 436.447 1743.19 436.429C1752.45 436.408 1754.55 438.31 1756.43 448.414C1757.2 452.539 1758.11 460.864 1758.46 466.914C1759.24 480.511 1760 487.608 1760.82 488.914C1761.16 489.464 1761.52 490.364 1761.6 490.914C1761.69 491.464 1762.91 497.089 1764.31 503.414C1765.71 509.739 1767.15 519.414 1767.52 524.914C1768.72 543.294 1771.32 555.796 1776.35 567.512C1777.72 570.694 1778.84 577.132 1780.7 592.414C1781 594.889 1783.39 601.639 1786 607.414C1788.61 613.189 1791.33 620.164 1792.03 622.914C1793.58 628.965 1796.27 634.561 1798.51 636.423C1799.42 637.18 1801.67 640.78 1803.5 644.423C1806.03 649.438 1808.24 652.125 1812.59 655.481C1817.86 659.545 1818.78 659.898 1823.6 659.725C1830.59 659.473 1833.39 657.864 1841.17 649.614C1846.29 644.189 1848.34 641.057 1850.56 635.292C1852.12 631.234 1854.58 626.114 1856.02 623.914C1858.8 619.677 1862.4 608.909 1863.54 601.414C1863.92 598.939 1865.5 594.327 1867.06 591.165C1870.25 584.688 1874.48 568.201 1875.45 558.414C1875.81 554.839 1877.7 546.289 1879.66 539.414C1881.63 532.539 1883.42 525.564 1883.65 523.914C1883.89 522.264 1884.29 519.564 1884.54 517.914C1884.79 516.264 1885.45 508.614 1886.01 500.914C1887.98 473.426 1889.16 463.165 1891 457.58C1897.59 437.535 1899.97 435.014 1911.43 435.93C1915.32 436.241 1920.3 436.957 1922.5 437.523ZM2317.5 716.81C2314.75 717.531 2308.9 718.888 2304.5 719.826C2282.44 724.53 2280.75 725.022 2274.97 728.431C2272.26 730.03 2267.22 732.734 2263.77 734.439C2260.32 736.144 2256.15 738.764 2254.5 740.26C2252.85 741.757 2249.25 744.512 2246.5 746.382C2241.33 749.902 2236.77 754.372 2232.21 760.414C2230.76 762.339 2228.11 765.581 2226.33 767.619C2224.54 769.657 2222.11 773.257 2220.91 775.619C2219.71 777.981 2217.67 781.172 2216.39 782.709C2213.59 786.058 2210.76 792.255 2209.22 798.443C2208.59 800.935 2207.3 804.76 2206.34 806.943C2201.81 817.302 2200.19 827.254 2199.34 849.914C2198.66 868.137 2200.1 879.454 2204.13 887.584C2205.68 890.702 2207.86 897.452 2208.98 902.583C2210.33 908.753 2212.03 913.436 2214.01 916.413C2215.65 918.889 2218.35 923.734 2220.01 927.18C2221.67 930.627 2224.52 935.127 2226.35 937.18C2228.17 939.234 2231.05 942.973 2232.76 945.49C2238.19 953.517 2255.19 967.941 2265.16 972.996C2267.74 974.303 2271.08 976.507 2272.57 977.894C2274.07 979.28 2275.68 980.47 2276.15 980.539C2277.32 980.711 2278.25 980.986 2280 981.684C2280.82 982.013 2283.97 982.802 2287 983.438C2308.64 987.986 2338.26 988.236 2361.26 984.065C2374.6 981.646 2379.8 979.743 2396.5 971.164C2397.6 970.599 2403.1 966.55 2408.72 962.166C2420.52 952.96 2430.35 942.937 2435.67 934.688C2437.72 931.513 2440.39 927.789 2441.61 926.414C2442.83 925.039 2445.96 919.639 2448.57 914.414C2451.18 909.189 2453.82 904.239 2454.45 903.414C2456.61 900.564 2457.9 895.736 2460.49 880.914C2461.26 876.514 2462.58 869.089 2463.43 864.414C2465.38 853.603 2465.43 834.736 2463.53 825.252C2459.23 803.833 2457.11 795.263 2454.99 790.824C2453.69 788.123 2452.33 785.689 2451.95 785.414C2451.57 785.139 2449.89 782.214 2448.21 778.914C2443.16 768.943 2428.74 752.518 2419.61 746.322C2416.38 744.126 2412.5 741.166 2410.99 739.745C2407.95 736.878 2391 727.741 2384 725.193C2381.52 724.293 2377.7 723.314 2375.5 723.018C2370.03 722.281 2358.09 719.851 2348.7 717.565C2339.43 715.308 2324.6 714.949 2317.5 716.81ZM1827.67 999.07C1827.57 999.156 1795.55 999.506 1756.5 999.849C1601.46 1001.21 1573.89 1001.67 1563.5 1003.07C1561.3 1003.36 1557.7 1003.75 1555.5 1003.93C1553.3 1004.11 1548.57 1004.51 1545 1004.82C1541.42 1005.12 1533.32 1005.65 1527 1006C1520.67 1006.35 1515.25 1006.78 1514.94 1006.97C1514.63 1007.15 1497.31 1007.55 1476.44 1007.86C1455.57 1008.17 1432.87 1008.64 1426 1008.91C1419.12 1009.18 1404.05 1009.66 1392.5 1009.97C1380.95 1010.29 1364.75 1010.98 1356.5 1011.52C1348.25 1012.05 1337 1012.72 1331.5 1013.01C1326 1013.3 1319.47 1013.96 1317 1014.46C1314.52 1014.97 1308.9 1015.83 1304.5 1016.38C1300.1 1016.92 1295.5 1017.57 1294.27 1017.83C1292.1 1018.28 1281.76 1019.03 1265.5 1019.91C1261.1 1020.15 1253.22 1020.59 1248 1020.89C1242.77 1021.19 1234.22 1021.67 1229 1021.96C1214.28 1022.78 1196.31 1025.17 1187.5 1027.48C1183.1 1028.64 1175.58 1030.43 1170.79 1031.46C1165.99 1032.49 1160.17 1034.31 1157.83 1035.5L1153.59 1037.66L1155.91 1039.54C1157.18 1040.57 1158.82 1041.41 1159.55 1041.41C1160.27 1041.41 1162.14 1041.94 1163.68 1042.59C1170.12 1045.26 1185.33 1049.4 1191 1050C1193.47 1050.27 1197.3 1050.86 1199.5 1051.32C1201.7 1051.78 1205.49 1052.23 1207.93 1052.33C1210.36 1052.43 1212.7 1052.73 1213.12 1052.99C1214.52 1053.86 1252.29 1056.13 1268.77 1056.33C1277.72 1056.45 1285.87 1056.7 1286.89 1056.89C1289.82 1057.46 1345.28 1058.37 1411.5 1058.95C1467.8 1059.44 1482.78 1060.07 1493.5 1062.39C1501.57 1064.15 1505.12 1064.41 1540.5 1065.85C1588.77 1067.83 1862.7 1068.63 1962.82 1067.09C1992.14 1066.64 2016.89 1066.13 2017.82 1065.96C2018.74 1065.79 2030.52 1065.35 2044 1064.98C2073.67 1064.17 2091.81 1063.45 2098.5 1062.82C2112 1061.55 2116.23 1061.26 2139.5 1059.97C2150.53 1059.36 2181.87 1058.71 2236 1057.96C2255.52 1057.69 2280.72 1057.24 2292 1056.95C2330.88 1055.95 2354.48 1055.21 2355.99 1054.92C2356.82 1054.77 2362.67 1054.34 2369 1053.98C2375.32 1053.61 2381.62 1053.13 2383 1052.9C2384.37 1052.68 2387.75 1052.25 2390.5 1051.96C2401.79 1050.78 2413.39 1049.29 2413.93 1048.97C2414.24 1048.78 2417.87 1048.3 2422 1047.91C2426.12 1047.52 2430.17 1047.07 2431 1046.92C2431.82 1046.77 2436.77 1046.34 2442 1045.96C2457.92 1044.8 2465.15 1043.65 2473.5 1040.93C2481.93 1038.19 2483.47 1037.13 2483.79 1033.87C2484.24 1029.4 2481.31 1026.94 2473.86 1025.53C2470.36 1024.87 2465.25 1023.9 2462.5 1023.38C2459.75 1022.85 2453.67 1022.19 2449 1021.91C2444.32 1021.63 2438.47 1021.18 2436 1020.92C2433.52 1020.66 2427.9 1020.19 2423.5 1019.87C2410.83 1018.95 2393.13 1016.58 2384 1014.58C2381.52 1014.04 2373.9 1013.07 2367.06 1012.43C2360.21 1011.79 2352.79 1011.08 2350.56 1010.86C2342.8 1010.09 2288.02 1008.63 2239.5 1007.91C2220.25 1007.62 2203.37 1007.19 2202 1006.96C2200.62 1006.73 2188.25 1006.04 2174.5 1005.43C2160.75 1004.82 2148 1004.11 2146.16 1003.86C2144.32 1003.6 2127.22 1003.19 2108.16 1002.93C2068.42 1002.4 2036.7 1001.47 2033.62 1000.76C2030.68 1000.08 1828.36 998.419 1827.67 999.07ZM1018.5 1404.05C1008.37 1404.6 997.855 1406.44 990.039 1409.02C985.936 1410.37 978.961 1412.37 974.539 1413.45C962.881 1416.31 959.046 1417.58 953.999 1420.25C951.524 1421.56 945.674 1424.21 940.999 1426.14C936.324 1428.07 930.447 1431.14 927.938 1432.98C925.43 1434.81 921.03 1437.49 918.16 1438.93C915.291 1440.37 911.082 1443.32 908.808 1445.48C906.534 1447.64 904.298 1449.41 903.838 1449.41C902.474 1449.41 874.11 1475.97 871.054 1480.11C869.507 1482.2 866.387 1485.64 864.12 1487.75C861.853 1489.86 859.999 1492.01 859.999 1492.52C859.999 1493.04 858.123 1495.49 855.83 1497.98C853.537 1500.47 850.049 1505.15 848.08 1508.38C842.99 1516.74 836.755 1527.1 833.387 1532.8C831.799 1535.49 829.79 1538.86 828.923 1540.3C828.056 1541.74 826.081 1546.51 824.533 1550.91C822.986 1555.31 820.504 1561.21 819.017 1564.01C815.885 1569.92 814.466 1574.97 811.944 1589.19C810.942 1594.84 808.937 1602.04 807.487 1605.19C802.861 1615.24 801.792 1628.54 802.253 1670.34C802.681 1709.21 803.194 1714.21 807.793 1724.38C809.209 1727.52 810.874 1734.14 811.69 1739.88C812.474 1745.4 813.321 1751.3 813.572 1753C813.823 1754.7 815.77 1758.98 817.898 1762.51C820.026 1766.03 822.738 1772.18 823.925 1776.17C825.192 1780.42 827.913 1786.08 830.517 1789.89C832.956 1793.45 835.66 1798.06 836.526 1800.14C837.392 1802.22 839.38 1805.26 840.945 1806.91C842.509 1808.56 845.497 1812.61 847.584 1815.91C856.604 1830.17 877.008 1850.86 887.045 1855.93C890.045 1857.44 894.13 1859.96 896.122 1861.53C898.115 1863.1 903.29 1865.9 907.622 1867.76C911.955 1869.61 917.524 1872.5 919.999 1874.17C925.591 1877.95 928.053 1878.6 950.929 1882.43C961.066 1884.13 969.616 1885.67 969.929 1885.85C970.651 1886.27 979.052 1887.35 989.999 1888.42C1000.72 1889.48 1052.92 1888.79 1066.94 1887.4C1077.39 1886.37 1112.39 1879.72 1123 1876.75C1126.02 1875.9 1129.95 1874.38 1131.72 1873.36C1135.84 1871 1149.1 1865.41 1150.6 1865.41C1151.23 1865.41 1153.93 1863.68 1156.62 1861.55C1159.3 1859.43 1162.93 1856.96 1164.67 1856.07C1168.98 1853.86 1171.35 1850.12 1173.31 1842.41C1175.43 1834.07 1175.84 1829.16 1177.44 1792.41C1179.33 1749.15 1181.12 1728.29 1183.56 1721.17C1184.61 1718.09 1186.3 1715.64 1188.34 1714.21C1190.08 1713 1191.72 1711.76 1192 1711.45C1193.56 1709.71 1201.31 1705.46 1206.5 1703.5C1224.99 1696.51 1227.44 1693.63 1228.67 1677.41C1229.21 1670.27 1229.11 1669.79 1226.58 1667.26C1224.67 1665.35 1222.6 1664.49 1219.21 1664.18C1216.62 1663.94 1193.35 1663.68 1167.5 1663.6C1141.65 1663.53 1103.4 1663.21 1082.5 1662.91C1037.01 1662.25 1033.65 1662.64 1030.52 1668.93C1028.95 1672.1 1028.54 1674.99 1028.52 1683.14C1028.49 1696.88 1029.14 1697.51 1047.5 1701.47C1050.25 1702.06 1053.17 1702.83 1054 1703.17C1054.82 1703.51 1059.55 1704.32 1064.5 1704.98C1086.04 1707.85 1094.28 1709.49 1099.41 1711.92C1106.02 1715.04 1106.79 1715.94 1108.56 1722.61C1111.45 1733.46 1109.77 1791.53 1105.87 1815.41C1103.99 1826.92 1099.49 1830.61 1078 1838.29C1064.31 1843.18 1059.43 1843.8 1035 1843.79C1010.17 1843.79 1007.51 1843.42 987.499 1837.27C969.084 1831.6 963.293 1829.43 960.317 1827.09C958.884 1825.97 955.085 1823.64 951.875 1821.92C942.719 1817.03 924.608 1800.41 919.175 1791.91C917.768 1789.71 915.378 1786.56 913.864 1784.91C912.35 1783.26 909.243 1778.34 906.959 1773.97C904.675 1769.6 901.769 1764.65 900.501 1762.97C899.233 1761.29 896.799 1755.93 895.092 1751.07C893.386 1746.21 890.672 1739.23 889.062 1735.56C886.564 1729.87 884.588 1721.71 881.511 1704.41C877.648 1682.69 875.923 1645.4 877.945 1627.32C881.757 1593.25 884.464 1573.11 886 1567.41C886.658 1564.97 888.446 1560.48 889.973 1557.44C891.5 1554.4 893.915 1548.09 895.34 1543.41C896.849 1538.46 899.139 1533.45 900.825 1531.41C902.416 1529.49 905.278 1524.54 907.185 1520.41C909.092 1516.29 912.53 1510.75 914.825 1508.1C917.121 1505.46 918.999 1502.83 918.999 1502.26C918.999 1500.44 944.813 1475.71 949.697 1472.85C952.283 1471.34 956.256 1468.68 958.525 1466.95C960.793 1465.22 965.316 1462.97 968.574 1461.95C971.833 1460.94 978.549 1458.34 983.499 1456.17C994.961 1451.15 1005.58 1449.64 1029 1449.7C1051.95 1449.76 1068.78 1451.55 1078.18 1454.93C1082.2 1456.37 1090.05 1459.12 1095.61 1461.03C1102.85 1463.51 1107.17 1465.69 1110.84 1468.71C1113.66 1471.02 1117.32 1473.95 1118.96 1475.22C1122.31 1477.8 1126.59 1486.15 1130.41 1497.53C1132.55 1503.94 1133.21 1508.83 1134.53 1528.53C1136.16 1552.59 1137.58 1560.19 1141.17 1564.06C1144.47 1567.63 1154.05 1571.36 1160.67 1571.65C1165.93 1571.88 1167.11 1571.57 1170.39 1569.07C1176.79 1564.18 1178.31 1557.25 1181.02 1520.41C1182.13 1505.29 1183.71 1489.6 1184.52 1485.56C1185.33 1481.51 1186 1476.97 1186 1475.47C1186 1473.97 1186.31 1472.43 1186.7 1472.05C1187.79 1470.96 1188.14 1468.46 1188.27 1460.91C1188.37 1455.66 1187.82 1452.52 1186.08 1448.32C1183.94 1443.17 1183.01 1442.23 1174.19 1436.32C1168.92 1432.8 1164.14 1429.75 1163.56 1429.54C1161.74 1428.91 1155.85 1426.28 1146.5 1421.94C1137.56 1417.79 1134.01 1416.67 1122.5 1414.39C1119.2 1413.73 1112.67 1412.1 1108 1410.77C1096.71 1407.56 1096.98 1407.62 1085.5 1405.94C1075.98 1404.56 1031.96 1403.31 1018.5 1404.05ZM531.499 1407.4C526.549 1407.85 517.549 1409.13 511.499 1410.24C497.663 1412.8 494.507 1413.22 483.999 1413.92C453.155 1415.96 441.495 1417.77 415.222 1424.58C409.308 1426.11 406.652 1429.65 405.052 1438.13C403.87 1444.4 403.917 1445.75 405.491 1450.75C407.308 1456.53 409.214 1458.47 414.499 1459.92C417.978 1460.88 418.022 1460.9 419.999 1461.68C421.582 1462.31 432.746 1465.01 439.499 1466.39C444.703 1467.46 448.733 1468.82 452.727 1470.88C458.652 1473.93 458.628 1473.54 457.172 1541.41C456.635 1566.44 455.719 1616.61 455.135 1652.91C453.188 1773.95 452.097 1803.76 448.87 1824.13C447.575 1832.31 446.437 1833.74 439.999 1835.25C437.524 1835.83 430.977 1837.89 425.449 1839.83C419.922 1841.77 412.947 1843.63 409.949 1843.97C401.5 1844.93 394.864 1847.17 391.798 1850.11C390.258 1851.58 388.999 1853.23 388.999 1853.77C388.999 1854.31 388.361 1855.47 387.581 1856.33C385.717 1858.41 383.752 1872.64 384.909 1875.68C386.129 1878.89 387.806 1880.09 394.608 1882.61C401.202 1885.07 395.75 1885.01 518.999 1883.94C579.806 1883.41 589.356 1882.67 595.481 1878C597.932 1876.13 599.093 1874.31 599.534 1871.65C599.875 1869.59 600.569 1866.61 601.076 1865.02C601.584 1863.42 601.999 1859.29 601.999 1855.83C601.999 1850.06 601.768 1849.39 599.13 1847.51C595.218 1844.72 592.455 1843.78 585.999 1843.03C582.974 1842.68 575.999 1841.33 570.499 1840.03C557.905 1837.07 550.129 1835.63 542.499 1834.86C537.864 1834.39 526.783 1831.87 525.276 1830.94C525.153 1830.86 524.345 1827.45 523.481 1823.36C522.151 1817.06 522.071 1813.6 522.957 1800.91C523.534 1792.66 524.449 1770.61 524.992 1751.91C525.971 1718.16 526.165 1715.43 528.099 1708.11C529.126 1704.23 532.467 1699.97 533.827 1700.81C536.656 1702.56 578.775 1703.06 592.999 1701.52C607.383 1699.96 624.775 1696.52 628.999 1694.4C630.924 1693.44 636.994 1691.21 642.488 1689.46C647.982 1687.7 654.983 1684.75 658.045 1682.89C661.108 1681.03 666.513 1678.19 670.056 1676.59C673.6 1674.99 677.79 1672.46 679.368 1670.98C680.946 1669.5 684.096 1667.12 686.368 1665.7C696.351 1659.43 712.131 1643.9 718.126 1634.45C720.121 1631.3 722.436 1628.46 723.27 1628.14C724.104 1627.82 726.228 1624.49 727.99 1620.74C729.752 1616.98 732.21 1612.56 733.452 1610.91C737.319 1605.78 739.591 1600.23 741.422 1591.45C742.393 1586.8 744.021 1581.17 745.041 1578.95C748.173 1572.13 749.788 1563.48 750.466 1549.91C751.404 1531.13 750.075 1522.17 743.282 1501.47C738.644 1487.34 736.282 1481.86 731.187 1473.41C725.621 1464.18 718.156 1455.08 712.317 1450.41C711.285 1449.59 708.404 1447.27 705.915 1445.26C697.304 1438.3 685.217 1430.53 678.871 1427.88C675.366 1426.41 669.574 1423.84 665.999 1422.17C655.796 1417.39 654.806 1417.1 636.499 1413.41C630.999 1412.3 622.674 1410.47 617.999 1409.35C610.464 1407.53 605.581 1407.25 574.999 1406.94C556.024 1406.74 536.449 1406.95 531.499 1407.4ZM184.652 1411.1C184.53 1411.22 149.796 1411.57 107.465 1411.89C38.564 1412.4 29.898 1412.64 24.759 1414.18C19.595 1415.73 18.854 1416.31 17.377 1419.91C16.474 1422.11 15.541 1427.06 15.304 1430.91C14.945 1436.74 15.218 1438.46 16.937 1441.19C18.071 1442.99 20.125 1444.9 21.499 1445.44C22.874 1445.98 25.012 1446.81 26.249 1447.29C27.486 1447.78 28.839 1448.22 29.254 1448.28C29.669 1448.34 31.694 1449.11 33.754 1449.98C35.814 1450.86 38.174 1451.76 38.999 1451.99C39.824 1452.22 44.549 1453.54 49.499 1454.93C54.449 1456.31 60.074 1457.73 61.999 1458.07C63.924 1458.42 67.153 1459.53 69.174 1460.54C75.077 1463.49 75.392 1466.79 74.125 1512.31C73.534 1533.54 72.8 1570.04 72.494 1593.41C71.885 1639.91 70.464 1679.43 68.952 1691.91C67.924 1700.4 66.57 1722.55 65.468 1748.91C65.1 1757.71 64.641 1765.17 64.448 1765.49C64.255 1765.81 64.048 1771.43 63.989 1777.99C63.803 1798.43 62.018 1830.51 60.955 1832.5C60.398 1833.54 58.717 1834.64 57.22 1834.94C53.103 1835.77 44.643 1838.6 43.39 1839.57C41.694 1840.88 33.034 1843.34 27.999 1843.93C24.213 1844.38 17.844 1845.42 15.999 1845.89C15.724 1845.96 13.474 1846.35 10.999 1846.76C8.524 1847.17 5.73401 1848.08 4.79901 1848.78C2.79201 1850.29 0.00100166 1862.62 1.66457e-06 1869.98C-0.000998335 1874.25 0.448003 1875.47 2.872 1877.79C4.452 1879.31 8.614 1881.44 12.122 1882.54C19.493 1884.84 14.751 1884.8 157.499 1883.94C253.395 1883.36 326.918 1882.5 333.999 1881.88C349.75 1880.5 354.155 1879.35 356.311 1876.06C357.123 1874.82 358.523 1870.01 359.423 1865.36C361.607 1854.08 363.125 1848.15 364.18 1846.78C365.645 1844.87 369.845 1818.98 369.155 1816.11C369.049 1815.67 369.919 1807.59 371.088 1798.16C374.522 1770.47 372.079 1749.2 365.03 1745.43C362.619 1744.14 346.709 1741.12 342.221 1741.11C336.196 1741.08 328.82 1750.18 324.525 1762.94C321.78 1771.1 320.561 1773.85 316.554 1780.99C315.295 1783.22 312.868 1789.56 311.159 1795.06C309.45 1800.56 306.982 1806.63 305.676 1808.56C303.359 1811.97 301.504 1816.55 298.947 1825.15C298.255 1827.48 296.858 1830.14 295.844 1831.06C294.829 1831.97 293.999 1833.27 293.999 1833.94C293.999 1834.62 292.536 1835.88 290.749 1836.75C287.905 1838.14 280.449 1838.34 230.999 1838.39C199.924 1838.43 168.079 1838.15 160.232 1837.78C146.394 1837.13 145.862 1837.02 142.588 1834.23C136.192 1828.76 136.152 1828.19 138.979 1783.41C140.398 1760.96 141.816 1718.02 142.447 1678.41C143.804 1593.32 144.162 1577.72 145.569 1542.41C147.105 1503.9 147.968 1493.8 150.587 1483.72C155.698 1464.05 156.921 1462.27 166.912 1460C170.685 1459.14 178.211 1456.91 183.635 1455.04C189.06 1453.16 195.524 1451.08 197.999 1450.4C212.086 1446.56 213.009 1445.42 213.685 1431.18C214.196 1420.39 213.336 1416.6 209.687 1413.57C208.515 1412.6 185.431 1410.32 184.652 1411.1ZM592.499 1449.86C607.427 1451.35 612.499 1452.71 628.866 1459.62C638.083 1463.51 640.064 1464.82 646.723 1471.45C652.527 1477.23 655.066 1480.73 658.001 1486.95C660.084 1491.38 662.54 1495.62 663.46 1496.38C666.506 1498.91 667.887 1503.01 669.905 1515.53C673.75 1539.37 674.184 1547.55 672.502 1564.46C670.965 1579.92 668.548 1594.81 666.846 1599.3C666.349 1600.62 664.943 1602.89 663.721 1604.35C662.499 1605.82 660.149 1609.65 658.499 1612.88C654.698 1620.31 636.491 1638.95 629.881 1642.17C627.342 1643.41 623.569 1645.77 621.497 1647.42C617.887 1650.28 610.826 1652.81 598.999 1655.46C595.974 1656.13 590.349 1657.51 586.499 1658.51C572.468 1662.16 561.357 1663.35 545.337 1662.91C530.047 1662.5 528.832 1661.82 527.289 1652.91C525.688 1643.65 526.453 1602.34 528.993 1560.91C529.532 1552.11 530.445 1533.71 531.021 1520.01C531.598 1506.32 532.254 1494.81 532.48 1494.44C532.706 1494.08 533.382 1488.08 533.982 1481.11C535.099 1468.14 537.764 1457.44 540.678 1454.22C545.435 1448.96 566.002 1447.23 592.499 1449.86ZM3520 1527.91C3515.83 1529.42 3507.57 1531.67 3496.14 1534.4C3491.37 1535.54 3485.37 1537.85 3482.14 1539.78C3479.04 1541.63 3474.02 1544.37 3471 1545.85C3467.97 1547.34 3463.92 1550.03 3462 1551.84C3460.07 1553.65 3456.47 1556.5 3454 1558.18C3446.27 1563.43 3430.16 1580.02 3425.5 1587.53C3424.95 1588.41 3422.36 1591.79 3419.75 1595.03C3417.14 1598.26 3415 1601.5 3415 1602.21C3415 1602.93 3413.42 1605.98 3411.48 1609.01C3407.24 1615.65 3404.85 1620.95 3402.54 1628.91C3401.58 1632.21 3399.66 1637.16 3398.27 1639.91C3396.88 1642.66 3395.33 1646.49 3394.82 1648.41C3392.5 1657.12 3391.86 1660.15 3391.44 1664.38C3391.19 1666.87 3390.27 1674.09 3389.39 1680.41C3387.61 1693.22 3387.81 1703.37 3390.42 1733.91C3392.19 1754.55 3394.19 1765.12 3397.03 1768.73C3399.09 1771.35 3402.56 1781.15 3403.29 1786.41C3404 1791.5 3405.44 1794.67 3409.4 1799.85C3411.33 1802.38 3413.7 1806.97 3414.68 1810.06C3415.81 1813.64 3417.66 1816.8 3419.8 1818.79C3421.64 1820.51 3424.88 1824.84 3427 1828.41C3429.11 1831.99 3432.79 1836.73 3435.17 1838.95C3442.69 1845.96 3451.34 1852.99 3456 1855.87C3458.47 1857.4 3461.86 1859.94 3463.53 1861.52C3465.2 1863.09 3470.69 1866.15 3475.75 1868.31C3480.8 1870.47 3486.31 1873.21 3487.99 1874.41C3493.15 1878.08 3507.46 1880.49 3526.5 1880.9C3552.5 1881.45 3570.65 1879.06 3582.44 1873.54C3585.77 1871.98 3591.65 1869.68 3595.5 1868.42C3599.35 1867.17 3604.47 1864.83 3606.87 1863.23C3609.28 1861.63 3614.23 1858.78 3617.87 1856.9C3627.47 1851.95 3649.42 1830.04 3651.21 1823.63C3651.59 1822.24 3651.43 1818.81 3650.84 1816.01C3650 1812.04 3648.79 1809.98 3645.38 1806.68C3639.26 1800.76 3637.42 1800.53 3630.68 1804.84C3627.61 1806.81 3624.71 1808.41 3624.25 1808.41C3623.01 1808.41 3618.57 1810.41 3610.04 1814.79C3602.64 1818.6 3595.94 1820.66 3587 1821.87C3584.52 1822.2 3577.8 1823.19 3572.05 1824.06C3557.51 1826.27 3541.88 1825.5 3527.03 1821.87C3517.23 1819.46 3514.99 1818.53 3511.53 1815.4C3509.31 1813.38 3505.9 1810.65 3503.94 1809.32C3498.13 1805.39 3487.56 1793.38 3484.02 1786.66C3482.21 1783.23 3480.43 1780.41 3480.09 1780.41C3479.14 1780.41 3476.51 1774.85 3473.46 1766.41C3471.97 1762.29 3469.49 1756.89 3467.95 1754.41C3463.37 1747.03 3461.63 1739.34 3461.56 1726.25C3461.51 1715.93 3461.74 1714.25 3463.59 1711.75C3464.74 1710.19 3466.76 1708.39 3468.09 1707.76C3471.88 1705.94 3492.87 1704.55 3526 1703.94C3617.87 1702.24 3623.43 1701.87 3627.75 1697.11C3630.18 1694.42 3635.39 1681.05 3637.17 1672.91C3639.02 1664.46 3638.76 1634.16 3636.76 1624.41C3635.91 1620.29 3633.8 1611.51 3632.07 1604.91C3628.72 1592.11 3628.19 1589.8 3628.07 1587.38C3628.03 1586.54 3626.39 1583.39 3624.43 1580.38C3622.47 1577.37 3619.48 1572.21 3617.79 1568.91C3616.11 1565.61 3612.86 1561.11 3610.57 1558.91C3608.29 1556.71 3605.18 1553.23 3603.66 1551.16C3602.14 1549.1 3600.24 1547.41 3599.45 1547.41C3598.65 1547.41 3598 1546.96 3598 1546.41C3598 1545.86 3597.51 1545.41 3596.9 1545.41C3596.3 1545.41 3593.79 1543.64 3591.33 1541.48C3587.16 1537.8 3580.51 1535.04 3570.5 1532.83C3568.85 1532.46 3562.88 1530.85 3557.23 1529.24C3548.27 1526.7 3545.47 1526.34 3535.23 1526.48C3528.63 1526.56 3521.97 1527.19 3520 1527.91ZM3180 1534.05C3173.7 1534.72 3163.57 1537.7 3160 1539.93C3158.07 1541.13 3152.99 1543.83 3148.71 1545.91C3144.42 1548 3140.14 1550.68 3139.21 1551.87C3138.27 1553.05 3135.83 1555.15 3133.78 1556.54C3128.89 1559.85 3118.03 1570.16 3115.1 1574.27C3113.82 1576.06 3111.35 1578.97 3109.61 1580.72C3107.87 1582.48 3105.56 1585.61 3104.48 1587.68C3103.41 1589.75 3101.62 1592.45 3100.51 1593.68C3099.39 1594.91 3097.78 1597.04 3096.91 1598.41C3095.32 1600.95 3092 1610.39 3092 1612.37C3092 1612.97 3090.69 1616.26 3089.1 1619.69C3083.85 1630.95 3082.93 1635.76 3082.83 1652.61L3082.73 1668.15L3086.27 1675.53C3089.66 1682.63 3090.41 1684.86 3093.1 1695.91C3094.6 1702.1 3096.54 1706.16 3099.53 1709.41C3100.79 1710.79 3103.05 1714.51 3104.54 1717.69C3106.03 1720.86 3108.55 1724.39 3110.14 1725.52C3111.73 1726.65 3113.67 1728.81 3114.45 1730.32C3115.23 1731.83 3118.15 1735.36 3120.94 1738.16C3124.27 1741.51 3126 1744.09 3126 1745.71C3126 1750.45 3123.04 1755.27 3117.26 1759.94C3105.56 1769.41 3096.73 1780.09 3090.52 1792.28C3085.24 1802.65 3084.73 1804.23 3084.68 1810.28C3084.63 1816.12 3085.13 1817.93 3088.81 1825.36C3091.11 1830.01 3093 1834.41 3093 1835.14C3093 1835.87 3095.7 1839.37 3099 1842.91C3104.51 1848.84 3105 1849.73 3105 1853.92C3105 1860.74 3102.94 1864.6 3097.38 1868.18C3094.69 1869.91 3091.95 1872.22 3091.27 1873.31C3090.6 1874.41 3087.38 1877.12 3084.12 1879.33C3075.52 1885.17 3071.5 1890.4 3065.2 1903.91L3059.61 1915.91L3059.59 1925.91C3059.57 1936.75 3060.59 1941.58 3064.35 1948.47C3066.76 1952.89 3067.88 1956 3069.99 1964.21C3070.67 1966.83 3072.93 1970.59 3075.8 1973.86C3078.38 1976.81 3081.32 1980.41 3082.32 1981.85C3083.32 1983.3 3085.98 1985.64 3088.23 1987.06C3090.48 1988.48 3093.48 1990.91 3094.91 1992.47C3096.33 1994.02 3100.87 1996.72 3105 1998.47C3109.12 2000.21 3114.3 2003.08 3116.5 2004.85C3122.19 2009.41 3121.42 2009.15 3136.63 2011.84C3144.26 2013.19 3154.61 2015.37 3159.62 2016.69C3167.16 2018.66 3170.74 2019.04 3180.12 2018.81C3196.14 2018.43 3205.31 2017.64 3214.52 2015.86C3218.91 2015.01 3229.64 2013.01 3238.38 2011.43C3251.56 2009.03 3255.89 2007.77 3263.88 2004.04C3269.17 2001.57 3274.62 1999.31 3276 1999.02C3277.37 1998.73 3281.2 1996.82 3284.5 1994.76C3287.8 1992.71 3293.42 1989.52 3297 1987.67C3300.57 1985.82 3305.07 1982.83 3307 1981.03C3308.92 1979.23 3312.8 1976.32 3315.61 1974.57C3320.57 1971.48 3332 1960.42 3332 1958.72C3332 1958.26 3333.99 1955.8 3336.42 1953.26C3338.86 1950.72 3341.96 1946.45 3343.32 1943.78C3344.67 1941.1 3346.77 1938.02 3347.97 1936.94C3350.59 1934.57 3353.19 1929.06 3355.54 1920.91C3356.49 1917.61 3358.25 1912.66 3359.46 1909.91C3364.96 1897.38 3364.44 1883.66 3357.52 1858.91C3352.51 1841 3351.52 1839.03 3344.56 1833.01C3334.98 1824.72 3332.06 1822.88 3323 1819.44C3318.32 1817.66 3311.75 1815.17 3308.4 1813.89C3299.13 1810.35 3284.31 1809.42 3236 1809.39C3167.91 1809.33 3161.82 1808.45 3153.1 1797.43C3148.48 1791.58 3148.59 1792.15 3150.43 1783.58C3153.01 1771.55 3157.85 1769.41 3182.48 1769.41C3198.25 1769.41 3205.64 1768.39 3214.5 1764.96C3217.8 1763.69 3222.97 1762.08 3226 1761.39C3232.9 1759.81 3240.97 1756.3 3245.29 1753.01C3247.12 1751.61 3250.72 1749.54 3253.29 1748.4C3255.87 1747.26 3259.94 1744.66 3262.36 1742.62C3264.77 1740.58 3269.19 1737.04 3272.18 1734.76C3275.17 1732.47 3279.6 1727.97 3282.03 1724.76C3284.45 1721.54 3287.9 1717.24 3289.68 1715.2C3291.47 1713.16 3294.03 1709.33 3295.38 1706.7C3296.72 1704.07 3298.71 1700.97 3299.8 1699.82C3302.81 1696.65 3304.35 1693.14 3309.24 1678.41C3315.74 1658.8 3316.67 1651.71 3314.57 1637.49C3313.64 1631.2 3312.44 1625.24 3311.91 1624.24C3310.35 1621.33 3311.49 1611.26 3313.55 1609.75C3316.34 1607.71 3324.81 1605.66 3333.5 1604.92C3341.59 1604.23 3348.49 1601.96 3350.72 1599.26C3351.39 1598.45 3353.56 1593.09 3355.54 1587.35C3357.51 1581.61 3360.23 1574.14 3361.57 1570.74C3362.9 1567.35 3364 1563.63 3364 1562.47C3364 1559.72 3359.87 1553.25 3356.31 1550.43C3353.61 1548.29 3352.95 1548.22 3339.5 1548.82C3310.66 1550.09 3304.23 1550.54 3293.72 1551.96C3278.82 1553.97 3277.31 1553.88 3270.5 1550.49C3263.48 1547 3255.3 1543.41 3254.37 1543.41C3254.01 1543.41 3251.64 1542.14 3249.1 1540.57C3243.44 1537.09 3237.33 1535.56 3224.98 1534.54C3215.07 1533.72 3186.04 1533.4 3180 1534.05ZM2378 1535.13C2367.9 1535.62 2357.23 1537.77 2351.5 1540.48C2348.2 1542.04 2342.8 1544.07 2339.5 1544.99C2332.83 1546.86 2327.61 1549.28 2324.3 1552.07C2323.09 1553.08 2318.95 1556.39 2315.09 1559.41C2311.23 1562.44 2308.05 1565.27 2308.03 1565.71C2308.01 1566.14 2307.55 1567.04 2306.99 1567.71C2298.75 1577.62 2295.99 1582.36 2286.78 1602.41C2282.04 1612.74 2280.53 1623.46 2281.27 1641.69C2281.88 1656.75 2284.01 1666.07 2288 1671.15C2289.02 1672.44 2291.04 1676.6 2292.49 1680.38C2294.12 1684.67 2296.32 1688.32 2298.32 1690.09C2300.08 1691.64 2302.8 1694.81 2304.36 1697.12C2307.87 1702.3 2316.15 1710.22 2321.75 1713.76C2324.06 1715.22 2326.7 1717.55 2327.62 1718.95C2328.53 1720.35 2331.13 1722.58 2333.39 1723.91C2335.65 1725.23 2339.3 1728.18 2341.5 1730.45C2343.7 1732.73 2347.62 1735.67 2350.21 1737C2352.8 1738.33 2356.45 1740.75 2358.32 1742.39C2360.18 1744.03 2364.59 1746.67 2368.1 1748.27C2371.62 1749.86 2376.3 1752.61 2378.5 1754.39C2380.7 1756.16 2384.68 1758.72 2387.34 1760.08C2390 1761.43 2394.05 1764.23 2396.34 1766.3C2398.63 1768.37 2402.3 1771.38 2404.5 1772.99C2406.7 1774.6 2409.16 1776.81 2409.98 1777.91C2410.79 1779.01 2413.77 1782.43 2416.6 1785.51C2422.06 1791.46 2424.06 1796.1 2426.03 1807.35C2427.33 1814.79 2426.47 1824.69 2424.2 1828.39C2421.51 1832.77 2413.64 1840.51 2410 1842.34C2398.76 1848.03 2364.73 1847.2 2355.6 1841.03C2349.87 1837.16 2339.8 1828.03 2339.04 1826.01C2338.56 1824.76 2336.37 1821.65 2334.17 1819.11C2331.98 1816.57 2329.87 1813.02 2329.5 1811.21C2327.97 1803.8 2324.55 1793.51 2321.44 1786.91C2319.62 1783.06 2316.74 1776.81 2315.05 1773.03L2311.98 1766.14L2307.16 1766.71C2304.52 1767.02 2298.3 1768.9 2293.34 1770.89C2284.95 1774.24 2283.84 1775.04 2277.26 1782.39C2270.51 1789.94 2270.14 1790.61 2268.93 1797.6C2265.87 1815.11 2267.94 1836.42 2273.4 1843.62C2275.11 1845.86 2277.67 1849.47 2279.09 1851.63C2282.41 1856.66 2291.22 1864.75 2297 1868.08C2299.47 1869.51 2302.87 1871.96 2304.54 1873.54C2307.49 1876.32 2325.83 1885.08 2335 1888.09C2341.4 1890.2 2370.52 1890.99 2386.6 1889.5C2396.3 1888.6 2401.98 1887.47 2409.5 1884.94C2415 1883.09 2422.19 1880.82 2425.48 1879.9C2431.66 1878.17 2444.06 1870.31 2451.35 1863.51C2458.1 1857.21 2469.65 1842.14 2472.88 1835.41C2474.6 1831.84 2477.12 1826.89 2478.49 1824.41C2481.59 1818.8 2482.67 1813.17 2483.53 1797.91C2484.43 1782.03 2482.81 1767.5 2479.53 1761.98C2478.2 1759.75 2475.26 1754.39 2473 1750.08C2470.74 1745.78 2466.78 1740.13 2464.2 1737.55C2461.61 1734.96 2458.29 1731.51 2456.81 1729.88C2451.6 1724.12 2442.44 1715.57 2437.5 1711.84C2434.75 1709.77 2432.05 1707.51 2431.5 1706.84C2430.95 1706.16 2427.95 1704 2424.85 1702.04C2421.74 1700.08 2417.08 1696.65 2414.51 1694.42C2411.93 1692.19 2407.96 1689.42 2405.69 1688.26C2403.42 1687.1 2399.3 1684.47 2396.53 1682.4C2393.76 1680.34 2389.25 1677.68 2386.5 1676.48C2383.75 1675.29 2379.92 1672.82 2378 1670.98C2376.07 1669.15 2372.7 1666.53 2370.5 1665.17C2368.3 1663.81 2360.64 1656.9 2353.48 1649.81C2339.41 1635.88 2338.61 1634.53 2337.36 1622.62C2336.64 1615.71 2338.53 1601.39 2340.76 1596.91C2342.52 1593.39 2352.2 1583.99 2356.5 1581.63C2361.29 1579.01 2379.04 1579.33 2385.25 1582.15C2391.7 1585.08 2397.36 1589.91 2401.46 1595.99C2403.34 1598.78 2405.61 1601.68 2406.51 1602.42C2409.38 1604.81 2412.17 1611.51 2413.1 1618.31C2413.65 1622.24 2415.26 1627.32 2417.09 1630.84C2418.79 1634.1 2421.3 1639.95 2422.69 1643.84C2424.08 1647.73 2426.4 1652.18 2427.85 1653.73C2430.3 1656.34 2430.9 1656.5 2436 1655.96C2444.46 1655.07 2452.84 1651.5 2456.94 1647.04C2458.9 1644.9 2462.16 1641.39 2464.19 1639.23C2470.47 1632.53 2471.5 1627.78 2471.5 1605.41C2471.5 1583.33 2470.59 1579.23 2464.07 1571.91C2462.1 1569.71 2459.41 1566.28 2458.07 1564.3C2456.74 1562.31 2453.81 1559.5 2451.57 1558.05C2449.33 1556.6 2445.61 1553.89 2443.31 1552.02C2441.01 1550.16 2436.96 1547.85 2434.31 1546.89C2431.66 1545.94 2425.9 1543.49 2421.5 1541.44C2410.37 1536.27 2396.41 1534.25 2378 1535.13ZM2629 1537.51C2615.85 1538.09 2610.48 1539.1 2604.66 1542.1C2603.09 1542.9 2598.59 1544.22 2594.66 1545.03C2587.74 1546.44 2577 1550.97 2577 1552.47C2577 1552.88 2574.82 1554.61 2572.15 1556.32C2567.28 1559.44 2555 1571.48 2555 1573.12C2555 1573.61 2552.53 1576.91 2549.51 1580.46C2546.49 1584.01 2544.02 1587.62 2544.01 1588.48C2544 1589.34 2542.93 1592.26 2541.63 1594.98C2540.33 1597.69 2538.95 1600.93 2538.56 1602.16C2538.18 1603.4 2537.53 1604.41 2537.12 1604.41C2536.2 1604.41 2533.19 1614.51 2532.5 1619.91C2532.22 1622.11 2531.72 1629.76 2531.39 1636.91C2530.58 1654.74 2532.72 1669.2 2537.03 1674.91C2538.69 1677.11 2541.78 1682.51 2543.9 1686.91C2546.86 1693.06 2549.47 1696.6 2555.16 1702.18C2559.24 1706.17 2564.64 1710.89 2567.17 1712.68C2572.13 1716.16 2581.76 1723.9 2589 1730.21C2591.47 1732.37 2595.3 1735.28 2597.5 1736.66C2599.7 1738.05 2602.85 1740.63 2604.5 1742.39C2606.15 1744.15 2610.25 1746.85 2613.6 1748.38C2616.96 1749.9 2621.46 1752.73 2623.6 1754.66C2625.75 1756.58 2629.82 1759.58 2632.65 1761.31C2635.48 1763.05 2638.53 1765.57 2639.41 1766.92C2640.3 1768.27 2642.52 1770.17 2644.35 1771.15C2648.37 1773.29 2662.35 1788.3 2666.5 1794.95C2668.15 1797.59 2670.33 1801.03 2671.34 1802.59C2673.39 1805.74 2674.73 1818.73 2673.61 1824.67C2672.9 1828.45 2662.69 1840.94 2658.48 1843.16C2650.9 1847.18 2630.6 1849.03 2617.36 1846.91C2602.69 1844.57 2596.9 1840.76 2586.28 1826.52C2581 1819.43 2577.07 1812.28 2577.02 1809.69C2577.01 1809.01 2575.66 1805.55 2574.03 1801.99C2569.02 1791.04 2568.16 1788.66 2567.42 1783.7C2566.52 1777.59 2564.39 1771.5 2562.37 1769.27C2559.75 1766.38 2550.91 1765.81 2545.79 1768.21C2543.43 1769.32 2539.38 1771.13 2536.78 1772.25C2528.44 1775.83 2522.59 1782.4 2516.22 1795.34L2510.52 1806.91L2510.51 1816.44C2510.5 1825.43 2510.68 1826.24 2513.68 1830.94C2515.42 1833.67 2518.01 1838.99 2519.41 1842.75C2521.28 1847.74 2523.59 1851.35 2527.99 1856.14C2531.29 1859.75 2534 1863.07 2534 1863.52C2534 1863.96 2536.14 1865.55 2538.75 1867.04C2541.36 1868.52 2544.62 1870.71 2546 1871.9C2550.11 1875.44 2553.05 1876.95 2562.5 1880.39C2567.45 1882.2 2571.95 1883.99 2572.5 1884.37C2574.67 1885.89 2583.02 1888.52 2588.61 1889.46C2591.85 1890 2602.37 1890.62 2612 1890.84C2633.4 1891.33 2650.36 1889.53 2659.35 1885.8C2662.73 1884.4 2668.86 1882.17 2672.96 1880.84C2685.47 1876.8 2706.24 1860.54 2711.28 1850.84C2712.12 1849.23 2714.02 1846.79 2715.5 1845.41C2719.1 1842.07 2720.58 1839.01 2722.6 1830.8C2723.52 1827.01 2725.76 1821.21 2727.57 1817.91C2731.74 1810.3 2733.42 1799.12 2732.45 1785.41C2731.81 1776.35 2731.38 1774.89 2725.96 1763.31C2719.24 1748.95 2715.29 1743.75 2697.94 1726.44C2683.77 1712.31 2674.38 1703.93 2668.5 1700.19C2666.3 1698.79 2663.15 1696.44 2661.5 1694.97C2659.85 1693.5 2656.47 1691.24 2654 1689.95C2651.52 1688.66 2646.35 1685.27 2642.5 1682.42C2638.65 1679.56 2633.81 1676.36 2631.75 1675.3C2629.69 1674.24 2628 1672.95 2628 1672.43C2628 1671.9 2625.41 1669.57 2622.25 1667.25C2611.36 1659.23 2595.94 1643.75 2591.82 1636.69C2588.93 1631.74 2587.71 1625.41 2587.8 1615.91C2587.89 1606.34 2592 1593.41 2594.97 1593.41C2595.47 1593.41 2598.61 1590.89 2601.95 1587.8C2607.72 1582.46 2608.35 1582.14 2614.76 1581.45C2623.99 1580.44 2633.61 1581.7 2636.89 1584.33C2638.32 1585.49 2641.87 1588.08 2644.76 1590.08C2647.65 1592.08 2650.99 1595.33 2652.17 1597.31C2653.35 1599.29 2655.57 1602.26 2657.1 1603.91C2660.63 1607.7 2662.84 1612.96 2663.49 1619.11C2664.74 1631.01 2665.27 1633.28 2668.19 1639.15C2669.89 1642.59 2672.69 1648.89 2674.4 1653.15L2677.51 1660.91L2684.56 1660.86C2690.55 1660.81 2692.15 1660.41 2695.06 1658.22C2696.95 1656.8 2700.3 1654.72 2702.5 1653.59C2707.65 1650.94 2718.9 1638.38 2720.63 1633.35C2724.76 1621.38 2724.94 1596.79 2721.01 1584.14C2719.24 1578.46 2717.72 1576.05 2711.58 1569.3C2704.15 1561.14 2692.19 1551.83 2684 1547.85C2681.52 1546.64 2676.8 1545.1 2673.5 1544.43C2670.2 1543.75 2666.37 1542.63 2665 1541.94C2656.58 1537.73 2648.02 1536.67 2629 1537.51ZM1603.5 1539.44C1599.65 1540.47 1593.84 1542.23 1590.59 1543.36C1587.35 1544.49 1583.97 1545.43 1583.09 1545.46C1579.64 1545.54 1568.79 1550.08 1565.24 1552.92C1563.18 1554.56 1559.25 1556.96 1556.5 1558.23C1553.76 1559.51 1549.26 1562.27 1546.5 1564.38C1543.75 1566.49 1538.8 1569.68 1535.5 1571.48C1521.81 1578.92 1521.6 1578.93 1520.54 1571.74C1518.85 1560.33 1516.03 1550.99 1513.5 1548.46C1511.05 1546.01 1510.5 1545.92 1499.23 1545.98C1489.03 1546.04 1475.64 1547.14 1445 1550.45C1440.87 1550.9 1432.41 1552.34 1426.19 1553.67C1411.84 1556.72 1409.45 1558.68 1407.88 1568.72C1407.01 1574.33 1407.12 1576.28 1408.55 1580.67C1409.49 1583.55 1410.73 1586.5 1411.3 1587.21C1412.19 1588.34 1428.05 1596.41 1429.37 1596.41C1429.64 1596.41 1432.7 1597.73 1436.18 1599.34C1439.66 1600.95 1444.67 1602.81 1447.33 1603.48C1450.38 1604.25 1453.23 1605.84 1455.07 1607.8L1457.99 1610.91L1457.91 1694.91C1457.87 1741.11 1457.53 1790.2 1457.15 1803.99C1456.37 1832.43 1456.02 1833.78 1449.26 1835C1447.19 1835.37 1445.04 1836.03 1444.49 1836.47C1441.82 1838.56 1427.13 1843.04 1420 1843.94C1413.07 1844.81 1405.52 1847.97 1403.7 1850.77C1402.93 1851.95 1401.5 1855.34 1400.53 1858.3C1398.59 1864.15 1398.88 1873.36 1401.07 1875.99C1401.72 1876.79 1404.72 1878.15 1407.73 1879.02C1412.44 1880.39 1422.29 1880.64 1478.85 1880.84C1549.09 1881.09 1555.9 1880.73 1560.35 1876.55C1563.48 1873.61 1566 1864.54 1566 1856.19C1566 1850.07 1565.78 1849.41 1562.95 1847.03C1561.28 1845.62 1558.02 1843.98 1555.7 1843.38C1548.26 1841.44 1545.66 1840.63 1537.01 1837.49C1532.34 1835.8 1527.51 1834.41 1526.27 1834.41C1525.04 1834.41 1522.56 1833.1 1520.77 1831.5L1517.5 1828.58L1517.78 1767.25C1518.03 1713.17 1518.73 1684.4 1520.49 1657.04C1521.4 1643.02 1522.89 1636.22 1526.77 1628.41C1529.99 1621.95 1531.63 1620 1538.72 1614.29C1543.59 1610.36 1549.7 1606.53 1553.72 1604.88C1557.45 1603.34 1563.42 1600.84 1567 1599.32C1574.41 1596.18 1583.31 1594.75 1597 1594.5C1609.38 1594.27 1616.33 1595.81 1622.13 1600.04C1624.68 1601.89 1627.21 1603.41 1627.75 1603.41C1629.54 1603.41 1634.1 1607.61 1636.6 1611.58C1637.96 1613.73 1640.58 1617.16 1642.42 1619.2C1648.58 1626.04 1648.5 1624.63 1648.49 1730.41L1648.49 1825.91L1646.31 1829.41C1644.55 1832.25 1642.27 1833.72 1634.32 1837.16C1628.92 1839.49 1620.67 1842.32 1616 1843.44C1611.32 1844.56 1606.52 1845.97 1605.32 1846.58C1601.76 1848.37 1600.5 1853 1600.5 1864.3C1600.5 1874.35 1600.58 1874.74 1603.14 1876.66C1604.59 1877.75 1607.74 1879.02 1610.14 1879.49C1612.54 1879.95 1642.5 1880.35 1676.71 1880.37C1737.27 1880.41 1739.07 1880.36 1744.47 1878.34C1750.56 1876.06 1751.44 1874.93 1753.64 1866.59C1755.5 1859.58 1754.71 1849.37 1752.14 1847.04C1749.87 1844.99 1724.38 1835.65 1718.5 1834.72C1712.72 1833.8 1709.16 1831.42 1707.91 1827.63C1706.39 1823.05 1707.44 1652.45 1709.04 1642.41C1709.76 1637.87 1710.97 1634.71 1713.07 1631.91C1714.71 1629.71 1717.18 1626.21 1718.56 1624.13C1719.94 1622.05 1722.89 1619.13 1725.11 1617.63C1727.33 1616.14 1730.58 1613.74 1732.32 1612.3C1736.08 1609.21 1741.94 1606.17 1747.5 1604.44C1749.7 1603.75 1755 1601.64 1759.27 1599.74C1765.32 1597.05 1768.97 1596.13 1775.77 1595.6C1791.46 1594.37 1796.86 1595.44 1811 1602.59L1823.5 1608.91L1827 1617C1828.92 1621.45 1831.96 1627.33 1833.73 1630.07C1836.51 1634.34 1837.1 1636.38 1837.87 1644.48C1839.91 1665.83 1838.49 1800.95 1836.02 1820.82C1835.23 1827.17 1834.78 1828.23 1831.66 1830.95C1827.49 1834.57 1815.74 1839.57 1803.47 1842.95C1797.99 1844.46 1793.7 1846.27 1792.34 1847.66C1791.13 1848.9 1789.36 1852.87 1788.41 1856.48L1786.68 1863.04L1789.25 1868.64C1790.67 1871.76 1793.05 1875.06 1794.61 1876.08C1797.59 1878.03 1791.92 1877.9 1910 1878.64C1929.97 1878.76 1933.36 1878.04 1938.07 1872.68C1942.59 1867.53 1944 1863.46 1944 1855.58C1944 1847.45 1942.54 1845 1935.25 1840.93C1930.55 1838.3 1916.43 1834.45 1911.21 1834.37C1909.72 1834.35 1906.26 1833.54 1903.53 1832.57C1899.19 1831.03 1898.47 1830.37 1897.82 1827.36C1897.41 1825.46 1897.03 1779.14 1896.97 1724.41C1896.86 1622.65 1896.65 1616.52 1893.01 1608.91C1891.86 1606.52 1888.79 1597.67 1886.93 1591.41C1884.89 1584.54 1882.93 1580.69 1876.69 1571.22C1870.52 1561.88 1860.06 1552.14 1852.14 1548.37C1846.87 1545.87 1831.8 1541.78 1819.46 1539.51C1811.08 1537.97 1809.57 1537.97 1798.96 1539.46C1792.65 1540.35 1784.57 1542 1781 1543.12C1777.42 1544.24 1771.17 1545.9 1767.1 1546.81C1762.16 1547.91 1758.18 1549.56 1755.1 1551.79C1752.57 1553.62 1747.57 1556.57 1744 1558.35C1740.42 1560.13 1736.37 1562.61 1735 1563.86C1733.62 1565.11 1729.72 1567.99 1726.33 1570.26C1722.94 1572.52 1719.26 1575.63 1718.17 1577.15C1717.08 1578.67 1714.46 1580.81 1712.34 1581.91C1710.23 1583.01 1707.37 1584.94 1706 1586.19C1704.62 1587.44 1702.62 1588.34 1701.54 1588.19C1700.43 1588.03 1697.41 1584.84 1694.54 1580.77C1681.64 1562.5 1681.67 1562.54 1671.09 1553.66C1667.65 1550.78 1664.19 1548.41 1663.4 1548.41C1662.61 1548.41 1661.19 1548 1660.23 1547.5C1659.28 1547 1651.97 1544.52 1644 1542C1630.81 1537.82 1628.64 1537.41 1620 1537.49C1614.15 1537.54 1607.81 1538.29 1603.5 1539.44ZM2089.5 1538.06C2088.4 1538.31 2082.55 1539.91 2076.5 1541.6C2070.45 1543.29 2062.8 1545.29 2059.5 1546.04C2056.2 1546.79 2052.39 1547.66 2051.03 1547.97C2049.68 1548.28 2046.08 1550.21 2043.03 1552.26C2039.99 1554.31 2034.24 1557.25 2030.25 1558.79C2026.26 1560.33 2022.66 1562.15 2022.25 1562.83C2021.84 1563.5 2018.8 1566.03 2015.5 1568.44C2007.02 1574.64 1997 1584.92 1994.17 1590.32C1992.84 1592.85 1990.92 1595.84 1989.88 1596.98C1988.85 1598.11 1988 1599.59 1988 1600.26C1988 1600.94 1987.21 1602.69 1986.25 1604.16C1984.82 1606.35 1984.5 1609.13 1984.5 1619.54C1984.5 1632.1 1984.53 1632.29 1987.5 1636.24C1998.3 1650.64 1997.64 1650.02 2006.38 1653.78C2010.97 1655.75 2017.15 1657.64 2020.12 1657.98C2025.04 1658.55 2025.86 1658.34 2029.72 1655.52C2035.55 1651.27 2037.41 1646.97 2039.94 1631.91C2042.77 1615.07 2043.67 1612.12 2048.16 1604.91C2055.71 1592.77 2056.41 1592.05 2064.5 1587.91C2072.13 1584.02 2072.61 1583.92 2082.42 1583.95C2089.64 1583.97 2093.35 1584.43 2095.5 1585.56C2106.64 1591.44 2112.43 1595.29 2114.76 1598.37C2116.24 1600.32 2119.15 1603.69 2121.22 1605.87C2123.3 1608.04 2125 1610.46 2125 1611.25C2125 1613.69 2130.12 1635.7 2131.67 1639.91C2137.12 1654.76 2137.92 1674.86 2133.4 1683.6C2131.58 1687.13 2128.13 1688.11 2109.5 1690.4C2092.28 1692.51 2092.48 1692.47 2084.5 1695.45C2081.2 1696.68 2073.77 1698.92 2068 1700.43C2062.22 1701.94 2052.55 1705.51 2046.5 1708.37C2031.7 1715.36 2029.91 1716.33 2027 1718.95C2025.62 1720.18 2021.8 1722.69 2018.5 1724.51C2005.53 1731.68 1989.4 1749.62 1982.77 1764.28C1981.11 1767.93 1978.55 1772.49 1977.06 1774.41C1971.91 1781.11 1970.5 1788.76 1970.5 1809.91C1970.5 1831.08 1971.67 1836.9 1977.16 1843.21C1978.73 1845.03 1981.3 1849.3 1982.85 1852.71C1984.8 1856.99 1987.66 1860.82 1992.09 1865.06C2002.48 1875.03 2006.35 1877.82 2013.94 1880.81C2016.38 1881.77 2019.53 1883.36 2020.94 1884.34C2027.44 1888.89 2037.51 1890.22 2059.5 1889.44C2069.98 1889.07 2078.03 1887.37 2085.45 1883.98C2088.35 1882.65 2092.48 1881.09 2094.62 1880.52C2096.75 1879.94 2100.81 1877.99 2103.64 1876.19C2106.46 1874.39 2110.91 1871.56 2113.53 1869.91C2116.15 1868.26 2120.36 1865.45 2122.89 1863.67C2125.43 1861.88 2128.4 1859.8 2129.5 1859.04C2130.6 1858.28 2134.28 1857.38 2137.69 1857.06L2143.87 1856.46L2149.64 1861.69C2152.82 1864.56 2158.13 1869.65 2161.46 1872.99C2167.37 1878.93 2170.47 1880.64 2182.5 1884.54C2184.92 1885.32 2191.44 1885.83 2199 1885.82C2209.94 1885.81 2213.09 1885.39 2224.22 1882.47C2243.65 1877.37 2243.94 1877.06 2246.15 1859.16C2247.22 1850.44 2247.21 1850.38 2244.52 1846.85C2241.59 1843.01 2234.01 1839.14 2226.21 1837.5C2215.47 1835.25 2212.23 1834.4 2207 1832.47C2203.97 1831.35 2200.74 1829.52 2199.81 1828.39C2197.12 1825.13 2194.92 1815.95 2193.36 1801.41C2193.21 1800.04 2192.81 1762.24 2192.46 1717.41C2191.79 1631.19 2191.83 1631.97 2186.55 1605.91C2183.19 1589.33 2182.41 1586.98 2178.35 1581.2C2176.5 1578.58 2175 1576.12 2175 1575.74C2175 1573.32 2166.8 1562.18 2162.25 1558.41C2159.26 1555.94 2155.84 1553.08 2154.65 1552.07C2151.25 1549.15 2145.33 1546.41 2138.14 1544.43C2134.49 1543.43 2130.15 1542.13 2128.5 1541.54C2119.1 1538.2 2115.61 1537.64 2103.9 1537.62C2097.08 1537.61 2090.6 1537.81 2089.5 1538.06ZM2892 1538.5C2883.48 1539.81 2876.49 1541.3 2871.5 1542.85C2868.75 1543.71 2863.8 1544.85 2860.5 1545.39C2851.29 1546.9 2844.76 1549.1 2839.94 1552.34C2837.52 1553.97 2832.9 1556.33 2829.65 1557.6C2826.41 1558.87 2821.9 1561.53 2819.63 1563.51C2817.36 1565.49 2813.62 1568.28 2811.33 1569.72C2809.04 1571.16 2806.02 1573.82 2804.62 1575.63C2803.23 1577.44 2800.7 1579.81 2799.01 1580.91C2797.31 1582.01 2794.55 1585.05 2792.86 1587.66C2791.17 1590.28 2789.5 1592.42 2789.15 1592.42C2788.79 1592.43 2787.46 1593.95 2786.19 1595.82C2783.25 1600.14 2779.85 1618.04 2779.95 1628.71C2780.01 1635.25 2780.49 1637.44 2782.93 1642.27C2786.18 1648.71 2786.61 1649.16 2793.12 1652.77C2802.69 1658.08 2811.07 1660.62 2816.85 1659.97C2823.53 1659.22 2825.29 1658.29 2827.85 1654.16C2829.61 1651.3 2833.65 1638.16 2836.06 1627.41C2836.49 1625.49 2837.78 1620.09 2838.93 1615.41C2843.43 1597.02 2843.64 1596.69 2854.05 1591.11C2863.13 1586.24 2869.97 1585.04 2879.5 1586.62C2883.94 1587.36 2899.61 1592.64 2903.8 1594.81C2907.47 1596.72 2912.35 1602.25 2915.5 1608.08C2916.94 1610.74 2919.6 1615.01 2921.42 1617.57C2925.44 1623.24 2925.96 1626.88 2926.9 1655.41C2927.65 1678.48 2927.24 1682.63 2923.86 1686C2921.5 1688.36 2913.15 1690.43 2900.32 1691.84C2897.47 1692.15 2888.38 1694.66 2880.11 1697.41C2871.84 1700.16 2864.02 1702.41 2862.75 1702.41C2861.47 1702.41 2856.98 1704.21 2852.78 1706.4C2848.57 1708.59 2843.19 1711.11 2840.81 1712C2834.07 1714.52 2829.69 1716.73 2827.26 1718.82C2826.03 1719.88 2822.12 1722.36 2818.58 1724.33C2804.29 1732.29 2786.95 1750.42 2782.81 1761.73C2781.64 1764.92 2779.18 1769.51 2777.34 1771.92C2773.61 1776.81 2772.21 1779.96 2771.39 1785.3C2771.09 1787.29 2769.98 1793.41 2768.92 1798.91C2766.62 1810.9 2766.56 1813.96 2768.43 1823.56C2769.22 1827.6 2770.15 1833.07 2770.5 1835.7C2770.94 1839.05 2772.48 1842.45 2775.62 1847.04C2778.09 1850.65 2781.27 1856.05 2782.69 1859.04C2784.11 1862.04 2786.22 1865 2787.38 1865.62C2788.55 1866.24 2792.01 1869.14 2795.07 1872.07C2798.87 1875.69 2802.9 1878.31 2807.74 1880.31C2811.64 1881.92 2816.78 1884.37 2819.17 1885.75C2825.28 1889.3 2834.23 1890.65 2851.2 1890.55C2869.9 1890.45 2877.74 1889.2 2886.5 1884.94C2890.35 1883.06 2896.2 1880.55 2899.5 1879.35C2902.8 1878.15 2907.59 1875.44 2910.15 1873.32C2912.7 1871.2 2916.53 1868.47 2918.65 1867.25C2920.77 1866.03 2924.19 1863.55 2926.25 1861.73C2929.31 1859.02 2930.79 1858.43 2934.25 1858.51C2940.55 1858.66 2942.52 1859.48 2947.75 1864.16C2961.02 1876.02 2964.65 1878.7 2972.25 1882.29C2976.79 1884.43 2982.3 1886.69 2984.5 1887.3C2990.18 1888.87 3004.11 1888.68 3013.5 1886.9C3023.16 1885.07 3038.62 1879.97 3041.82 1877.55C3044.49 1875.54 3047.54 1867.05 3049.19 1857.1C3050.84 1847.1 3051.49 1847.52 3015.68 1835.72C3001.56 1831.07 2998.89 1828.66 2996.59 1818.53C2994.23 1808.12 2993.13 1787.16 2992.5 1740.41C2991.7 1681.71 2990.3 1650.92 2987.49 1630.41C2986.17 1620.79 2984.8 1610.21 2984.45 1606.91C2983.57 1598.75 2982.01 1594.36 2975.86 1582.79C2969.95 1571.67 2959.99 1559.77 2953.32 1555.86C2950.94 1554.47 2949 1553.01 2948.99 1552.62C2948.97 1550.71 2941.19 1547.05 2931.39 1544.34C2909.98 1538.41 2901.14 1537.1 2892 1538.5ZM3202.08 1572.42C3208.55 1574.22 3221.32 1582.29 3227.71 1588.63C3232.56 1593.43 3234.56 1596.35 3236.51 1601.43C3237.89 1605.05 3240.57 1610.43 3242.47 1613.37C3246.54 1619.68 3247.68 1624.65 3248.88 1641.17C3250.29 1660.45 3248.57 1688.73 3245.55 1695.94C3244.79 1697.76 3243.25 1700.16 3242.12 1701.29C3240.99 1702.42 3238.92 1705.16 3237.52 1707.37C3236.13 1709.59 3233.22 1712.51 3231.06 1713.88C3228.9 1715.24 3226.31 1717.18 3225.31 1718.19C3220.82 1722.71 3217.91 1723.66 3206.85 1724.18C3194.21 1724.78 3190.95 1723.87 3180.27 1716.75C3171.35 1710.81 3167.96 1707.46 3162.29 1698.97C3159.7 1695.09 3156.99 1691.31 3156.27 1690.57C3153.83 1688.08 3152.26 1683.96 3149.52 1672.91C3148.02 1666.86 3146.41 1661.45 3145.95 1660.88C3145.48 1660.31 3144.8 1654.68 3144.43 1648.38C3143.74 1636.7 3144.74 1626.28 3147.4 1617.41C3148.15 1614.94 3149.32 1609.76 3150 1605.91C3150.68 1602.06 3152.11 1596.85 3153.17 1594.33C3155.83 1588.02 3163.98 1580.42 3173.33 1575.52C3180.76 1571.63 3181.62 1571.41 3189.83 1571.42C3194.6 1571.42 3200.11 1571.87 3202.08 1572.42ZM3527 1575.68C3528.92 1576.37 3530.99 1577.24 3531.58 1577.63C3532.18 1578.01 3534.15 1578.59 3535.97 1578.91C3540.94 1579.78 3542.89 1581.08 3550.1 1588.3C3557.09 1595.3 3559.3 1598.73 3560.49 1604.41C3560.89 1606.34 3562.03 1609.26 3563.03 1610.91C3567.08 1617.58 3568.38 1623.54 3568.37 1635.41C3568.37 1642.81 3567.92 1647.75 3567.1 1649.26C3565.15 1652.86 3554.25 1657.5 3546.78 1657.93C3537.07 1658.47 3529.47 1659.4 3517.5 1661.52C3505.39 1663.65 3483.01 1665.35 3473.24 1664.87C3468.97 1664.66 3465.85 1663.87 3463.46 1662.39L3459.95 1660.22L3460.46 1647.07C3461.01 1632.75 3462.69 1622.61 3465.27 1617.91C3466.18 1616.26 3467.66 1613.34 3468.55 1611.41C3474.27 1599.12 3476.71 1595.41 3483.48 1588.79C3489.99 1582.41 3491.64 1581.36 3499.13 1578.81C3503.73 1577.25 3508.85 1575.42 3510.5 1574.76C3513.91 1573.38 3521.81 1573.82 3527 1575.68ZM2127.2 1734.16C2132.93 1737.23 2134.64 1740.49 2136.17 1751.32C2137.5 1760.72 2135.97 1788.62 2133.81 1794.43C2133.09 1796.37 2130.13 1802.02 2127.24 1806.99C2123.25 1813.83 2120.98 1816.62 2117.88 1818.47C2115.64 1819.81 2111.02 1822.95 2107.63 1825.44C2100.28 1830.85 2098.53 1831.59 2085.32 1834.88C2072.19 1838.15 2065.1 1838.13 2055.05 1834.81C2045.52 1831.66 2043.71 1829.89 2037.35 1817.41C2032.51 1807.93 2032.5 1807.9 2032.5 1797.91V1787.91L2038.11 1776.36C2042.66 1766.98 2044.54 1764.17 2048.11 1761.44C2050.52 1759.59 2054.3 1756.37 2056.5 1754.29C2058.94 1751.98 2063.24 1749.48 2067.5 1747.89C2071.35 1746.45 2076.64 1743.9 2079.26 1742.23C2082.66 1740.06 2087.31 1738.5 2095.47 1736.77C2101.77 1735.45 2109.52 1733.52 2112.71 1732.5C2119.18 1730.42 2120.5 1730.57 2127.2 1734.16ZM2922.48 1733.16C2923.89 1734.68 2926.05 1737.94 2927.27 1740.41C2929.42 1744.75 2929.5 1745.96 2929.5 1773.41L2929.5 1801.91L2926.49 1808.87C2924.18 1814.22 2922.44 1816.61 2918.99 1819.21C2916.52 1821.07 2912.64 1824.24 2910.37 1826.26C2908.1 1828.28 2904.5 1830.52 2902.37 1831.24C2900.24 1831.96 2897.6 1832.92 2896.5 1833.38C2895.4 1833.84 2891.8 1835.11 2888.5 1836.2C2869.9 1842.33 2866.46 1842.34 2854.5 1836.26C2844.66 1831.26 2843.43 1830.2 2840.26 1823.91C2838.88 1821.16 2836.85 1817.65 2835.77 1816.11C2830.6 1808.79 2829.53 1793.56 2833.43 1782.81C2834.76 1779.13 2836.23 1775.85 2836.68 1775.52C2837.13 1775.19 2838.71 1772.36 2840.2 1769.25C2841.76 1765.97 2844.44 1762.39 2846.56 1760.75C2848.58 1759.19 2851.64 1756.64 2853.36 1755.07C2858.09 1750.8 2859.92 1749.75 2866.89 1747.35C2870.41 1746.15 2876.04 1743.69 2879.39 1741.9C2882.75 1740.1 2889.55 1737.69 2894.5 1736.53C2899.45 1735.37 2906.2 1733.56 2909.5 1732.51C2917.72 1729.89 2919.51 1729.98 2922.48 1733.16ZM3259.32 1869.43C3267.03 1870.34 3269.65 1871.23 3280.04 1876.44C3293 1882.93 3293.7 1883.68 3296.07 1893.41C3297.81 1900.6 3297.77 1920.09 3296 1928.75C3294.73 1934.93 3293.94 1936.34 3287.75 1943.5C3283.98 1947.85 3280.52 1951.41 3280.07 1951.41C3279.62 1951.41 3275.93 1953.81 3271.87 1956.74C3264.61 1961.99 3261.25 1963.28 3246.5 1966.48C3237.27 1968.49 3218.14 1971.05 3214.3 1970.79C3199.03 1969.78 3193 1968.96 3178.7 1965.96C3159.77 1962 3157.51 1961.24 3153.5 1957.48C3151.85 1955.94 3148.36 1953.45 3145.75 1951.95C3143.14 1950.45 3140.01 1947.81 3138.8 1946.07C3137.59 1944.33 3134.95 1941.28 3132.92 1939.29C3129.88 1936.28 3129.05 1934.55 3128.12 1929.2C3126.22 1918.26 3126.68 1899.67 3129.04 1892C3130.91 1885.97 3131.68 1884.89 3137.75 1879.89C3145.49 1873.5 3150.65 1870.8 3157.55 1869.49C3160.27 1868.98 3173.95 1868.51 3187.95 1868.46C3201.94 1868.4 3213.54 1868.21 3213.71 1868.03C3214.42 1867.33 3251.09 1868.45 3259.32 1869.43ZM2709.79 2050.35C2707.2 2050.71 2704.86 2051.22 2704.58 2051.49C2704.11 2051.97 2702.67 2060.82 2701.49 2070.44L2700.94 2074.97L2693.22 2077.66C2688.97 2079.14 2681.45 2081.08 2676.5 2081.97C2663.98 2084.22 2658.19 2086.26 2654.05 2089.89C2652.1 2091.61 2648.57 2094.51 2646.21 2096.33C2643.85 2098.16 2640.81 2101.73 2639.46 2104.28C2638.12 2106.83 2635.89 2110.71 2634.51 2112.91C2629.73 2120.54 2628.37 2124.9 2627.12 2136.62C2625.53 2151.58 2627.11 2170.42 2630.54 2177.41C2636.03 2188.61 2642.47 2198.53 2645.86 2201.04C2647.86 2202.51 2651.08 2205.22 2653.02 2207.05C2656.71 2210.53 2666.94 2214.65 2675 2215.9C2682.89 2217.12 2693.03 2220.57 2695.95 2223.03C2697.51 2224.34 2699.49 2227.1 2700.36 2229.16C2702.84 2235.03 2704.12 2236.06 2710.16 2237.1C2717.4 2238.35 2720.17 2236.99 2723.42 2230.57C2724.75 2227.94 2726.44 2225.31 2727.17 2224.72C2728.94 2223.3 2748.79 2216.67 2756.89 2214.79C2760.43 2213.97 2764.55 2212.66 2766.03 2211.9C2770.48 2209.6 2779.35 2201.57 2781.66 2197.75C2782.85 2195.78 2785.64 2192.32 2787.86 2190.04C2791.4 2186.44 2792.17 2184.77 2793.98 2176.91C2795.11 2171.96 2796.77 2166.11 2797.67 2163.91C2799.8 2158.68 2799.75 2142.96 2797.58 2135.41C2796.71 2132.39 2795.07 2125.99 2793.92 2121.2C2792.11 2113.61 2791.3 2111.95 2787.69 2108.34C2785.4 2106.05 2782.63 2102.69 2781.52 2100.86C2780.41 2099.04 2777.68 2096.23 2775.45 2094.62C2773.23 2093.01 2770.08 2090.46 2768.45 2088.95C2764.5 2085.26 2762.39 2084.56 2750.14 2082.84C2738.1 2081.15 2736.2 2080.77 2729.83 2078.77C2724.14 2076.99 2723.14 2074.84 2721.98 2062.04C2720.94 2050.52 2719.4 2049.03 2709.79 2050.35ZM3036.2 2052.31C3031.39 2056.05 3031.21 2059.74 3031.55 2148.59C3031.89 2236.23 3031.8 2234.51 3036.4 2238.33C3038.64 2240.19 3047.52 2238.76 3050.5 2236.06L3052.88 2233.91L3053.4 2161.3C3053.86 2096.32 3054.1 2088.03 3055.66 2082.41C3058.48 2072.26 3057.85 2072.43 3093 2072.38C3121.36 2072.33 3122.67 2072.25 3127 2070.12C3130.46 2068.42 3131.57 2067.29 3131.81 2065.2C3132.18 2061.98 3127.76 2053.93 3124.64 2052.14C3123.05 2051.23 3111.67 2050.89 3080.38 2050.81C3043.16 2050.72 3038.02 2050.89 3036.2 2052.31ZM3154.64 2052.73C3148.53 2057.61 3150.9 2072.64 3159.33 2082.49C3161.24 2084.71 3163.31 2088.59 3163.94 2091.11C3165.38 2096.82 3167.9 2101.78 3171.9 2106.8C3173.6 2108.94 3175.44 2112.31 3175.98 2114.3C3177.2 2118.8 3180.34 2124.68 3184 2129.35C3185.54 2131.31 3187.12 2134.04 3187.52 2135.41C3188.76 2139.74 3192.13 2146.8 3194.44 2149.91C3195.66 2151.56 3198.71 2156.96 3201.22 2161.91C3203.73 2166.86 3207.18 2173.61 3208.88 2176.91C3211.1 2181.21 3212.16 2184.93 3212.62 2190C3213.21 2196.59 3213.03 2197.54 3210.1 2203.5C3207.98 2207.81 3205.48 2211.06 3202.47 2213.41C3200.01 2215.34 3197.36 2217.46 3196.59 2218.14C3195.28 2219.29 3191.19 2220.54 3182.95 2222.31C3180.99 2222.73 3176.04 2222.72 3171.95 2222.28C3165.03 2221.54 3159.8 2221.8 3157.86 2223C3157.42 2223.27 3156.53 2225.26 3155.88 2227.4C3154.98 2230.42 3154.99 2231.98 3155.93 2234.26C3158.46 2240.37 3173.85 2243.39 3188 2240.56C3191.02 2239.96 3194.85 2239.23 3196.5 2238.96C3205.42 2237.47 3207.87 2236.28 3215.1 2229.91C3222.01 2223.82 3231.96 2209.57 3235.36 2200.91C3236.88 2197.06 3239.64 2191.41 3241.5 2188.35C3243.37 2185.29 3245.12 2181.69 3245.4 2180.35C3246.73 2173.88 3250.14 2164.87 3252.85 2160.63C3254.5 2158.03 3257.22 2151.29 3258.9 2145.64C3260.57 2139.99 3263.22 2133.46 3264.79 2131.14C3268.17 2126.13 3269.5 2122.76 3270.94 2115.61C3272.03 2110.17 3273.93 2105.8 3277.13 2101.41C3278.13 2100.04 3280.72 2093.41 3282.89 2086.69C3285.05 2079.97 3287.76 2073.15 3288.91 2071.54C3291.83 2067.44 3293.55 2059.34 3292.38 2055.22C3291.44 2051.94 3291.38 2051.91 3284.62 2051.62C3280.26 2051.43 3277.28 2051.77 3276.32 2052.56C3275.5 2053.24 3272.95 2057.35 3270.66 2061.7C3268.37 2066.04 3265.64 2071.21 3264.58 2073.18C3263.52 2075.16 3261.86 2080.19 3260.89 2084.37C3259.13 2091.93 3256.64 2098.23 3253.16 2103.91C3251.11 2107.26 3249.34 2112.38 3248.66 2116.91C3247.52 2124.5 3244.55 2131.88 3241.68 2134.26C3240.87 2134.93 3238.95 2139.4 3237.41 2144.2C3235.87 2148.99 3233.16 2154.84 3231.39 2157.19L3228.18 2161.47L3221.17 2154.31C3215.08 2148.09 3213.87 2146.22 3211.92 2140.03C3210.68 2136.12 3207.77 2129.99 3205.45 2126.41C3203.12 2122.84 3200.45 2117.55 3199.52 2114.66C3198.59 2111.76 3196.23 2107.07 3194.28 2104.23C3192.33 2101.39 3189.27 2095.34 3187.48 2090.79C3185.69 2086.23 3182.9 2080.34 3181.29 2077.71C3179.67 2075.07 3177.21 2070.41 3175.81 2067.34C3173.87 2063.08 3171.85 2060.68 3167.25 2057.19C3158.23 2050.33 3157.82 2050.18 3154.64 2052.73ZM3478.15 2052.95C3476.91 2054.53 3475.84 2058.03 3475.32 2062.2C3473.96 2073.29 3474.56 2182.34 3476.16 2214.14C3477.06 2232.19 3477.95 2234.6 3484.82 2237.71C3489.02 2239.6 3491.76 2239.86 3511.41 2240.23C3542.01 2240.8 3561.98 2238.73 3570.5 2234.09C3577.7 2230.18 3591.09 2215.09 3593.05 2208.67C3593.68 2206.61 3594.43 2198.37 3594.72 2190.38C3595.27 2174.99 3593.65 2162.61 3590.52 2158.13C3586.68 2152.66 3577.63 2144.6 3571.86 2141.52C3568.36 2139.65 3565.27 2137.82 3565 2137.45C3564.32 2136.52 3553.52 2133.71 3548 2133.03C3545.52 2132.72 3535.4 2132.21 3525.5 2131.9C3515.6 2131.58 3506.13 2131.12 3504.46 2130.87C3498.56 2129.97 3498.31 2128.54 3497.7 2091.41C3497.38 2072.47 3496.7 2056.75 3496.12 2055.23C3494.74 2051.59 3492.17 2050.41 3485.64 2050.41C3480.95 2050.41 3479.85 2050.79 3478.15 2052.95ZM3629.3 2052.37C3625 2054.99 3623.36 2057.9 3622.57 2064.22C3621.9 2069.64 3621.85 2117.24 3622.51 2125.41C3622.93 2130.71 3624.04 2159.22 3624.44 2174.91C3624.59 2180.96 3624.35 2186.15 3623.9 2186.45C3622.09 2187.63 3621.75 2207.73 3623.39 2216.27C3624.28 2220.87 3625 2226.17 3625 2228.04C3625 2233.6 3628.92 2238.73 3634.09 2239.91C3637.58 2240.71 3647.69 2236.85 3649.13 2234.17C3650.39 2231.82 3649.62 2175.88 3647.92 2145.58C3647.38 2136.05 3646.52 2113.55 3645.99 2095.58C3645.47 2077.62 3644.56 2060.89 3643.98 2058.41C3642.17 2050.8 3636.02 2048.27 3629.3 2052.37ZM3331.5 2052.05C3324.95 2052.96 3323.99 2053.51 3321.76 2057.68C3319.55 2061.81 3319.5 2062.62 3319.61 2090.41C3319.75 2127.17 3320.86 2191.78 3321.59 2205.91C3321.91 2211.96 3322.93 2220.28 3323.86 2224.39C3325.41 2231.21 3325.93 2232.14 3329.86 2235.14C3335.2 2239.21 3337.81 2239.26 3341.54 2235.37L3344.45 2232.33L3344.75 2208.62C3345.09 2180.95 3346.04 2174.23 3350.01 2171.41C3354.57 2168.16 3358.11 2167.25 3367.5 2166.94C3384.91 2166.36 3395.17 2164.3 3403.81 2159.65C3416.02 2153.09 3422.38 2148.84 3423.95 2146.21C3424.8 2144.78 3427.3 2140.59 3429.5 2136.91C3435.84 2126.29 3436.12 2125.63 3437.06 2119.1C3440.21 2097.32 3435.44 2082.02 3420.88 2067.29C3416.34 2062.69 3414.13 2061.28 3409.38 2059.91C3406.15 2058.98 3399.22 2056.84 3394 2055.14C3384.53 2052.08 3384.41 2052.07 3359.5 2051.85C3345.75 2051.73 3333.15 2051.82 3331.5 2052.05ZM2010.25 2053.95C2006.21 2056.78 2005.27 2063.23 2004.1 2096.01C2002.85 2131.28 2000.87 2214.2 2001.02 2225.4C2001.13 2233.81 2001.98 2235.34 2008.42 2238.63C2012.2 2240.56 2014.15 2240.62 2063.42 2240.49C2119.99 2240.33 2120.92 2240.41 2127.59 2246.56C2135.98 2254.28 2135.53 2253.08 2136.86 2271.2C2137.62 2281.64 2137.9 2282.7 2140.49 2285.4C2143.23 2288.26 2143.36 2288.29 2146.89 2286.83C2148.88 2286 2151.62 2284.21 2153 2282.85C2155.4 2280.47 2155.53 2279.66 2156.33 2263.14C2156.79 2253.67 2157.3 2243.44 2157.47 2240.41C2157.66 2236.79 2157.16 2233.51 2155.99 2230.78C2154.44 2227.18 2153.47 2226.36 2148.57 2224.53C2145.46 2223.36 2142.6 2222.4 2142.21 2222.38C2140.29 2222.29 2137.26 2218.5 2136.65 2215.41C2136.27 2213.51 2135.97 2178.72 2135.99 2138.1C2136.01 2070.68 2135.87 2064 2134.33 2061.4C2132.49 2058.28 2130.46 2057.45 2124.68 2057.43C2119.78 2057.41 2117.53 2058.66 2116.22 2062.13C2115.53 2063.93 2114.95 2090.35 2114.56 2137.29C2114.16 2185.48 2113.59 2211.16 2112.84 2214.12C2112.04 2217.31 2111.05 2218.83 2109.35 2219.47C2108.04 2219.97 2097.38 2220.36 2085.66 2220.33C2073.94 2220.31 2057.41 2220.55 2048.92 2220.88C2040.44 2221.2 2031.02 2221.11 2028 2220.69L2022.5 2219.91L2021.26 2214.91C2019.47 2207.72 2021.48 2124.19 2024.05 2098.91C2024.67 2092.86 2025.02 2082.29 2024.84 2075.41C2024.53 2063.98 2024.29 2062.64 2022.04 2059.64C2020.14 2057.1 2014.06 2052.41 2012.66 2052.41C2012.54 2052.41 2011.46 2053.11 2010.25 2053.95ZM2842.51 2057.66C2839.68 2063.89 2839.85 2056.67 2840.35 2150.41C2840.58 2194.02 2841.12 2222.52 2841.81 2226.91C2843.29 2236.37 2845.56 2238.41 2854.58 2238.41C2860.77 2238.41 2861.23 2238.24 2865.54 2234.27C2868.02 2231.99 2872.15 2226.93 2874.74 2223.02C2877.33 2219.11 2880.8 2214.11 2882.47 2211.91C2884.14 2209.71 2887.03 2204.91 2888.91 2201.25C2890.78 2197.6 2893.74 2193.05 2895.48 2191.15C2897.22 2189.25 2899.26 2186.19 2900.02 2184.36C2900.78 2182.53 2903.28 2178.91 2905.58 2176.32C2907.88 2173.74 2911 2168.99 2912.51 2165.77C2914.02 2162.55 2916.76 2158.25 2918.59 2156.21C2920.42 2154.17 2922.89 2150.57 2924.08 2148.21C2925.28 2145.85 2928.03 2141.97 2930.21 2139.6C2932.38 2137.23 2934.85 2133.63 2935.69 2131.6C2937.61 2127 2942.17 2120.46 2943.48 2120.44C2944.02 2120.42 2946.75 2117.94 2949.54 2114.91C2954.04 2110.04 2954.82 2109.56 2956.41 2110.72C2961.18 2114.21 2961.73 2122.38 2962.26 2197.1C2962.5 2232.1 2962.58 2233.38 2964.61 2236.1C2966.53 2238.67 2967.27 2238.91 2973.07 2238.91C2979.11 2238.91 2979.53 2238.76 2981.59 2235.7L2983.76 2232.48L2983.34 2151.2C2983.11 2106.49 2982.69 2068.02 2982.41 2065.71C2981.72 2060.09 2979.57 2057.85 2973.09 2055.99C2967.88 2054.49 2967.52 2054.51 2963.12 2056.67C2956.63 2059.86 2951.8 2065.09 2949.6 2071.32C2948.56 2074.27 2946.48 2078.09 2944.98 2079.8C2943.49 2081.51 2940.56 2085.61 2938.47 2088.91C2936.39 2092.21 2933.57 2096.04 2932.21 2097.41C2930.85 2098.79 2928.28 2103.06 2926.49 2106.91C2924.71 2110.76 2921.57 2115.71 2919.52 2117.9C2917.47 2120.1 2914.74 2123.97 2913.45 2126.51C2912.16 2129.05 2909.93 2132.53 2908.49 2134.25C2907.04 2135.96 2904.37 2140.42 2902.55 2144.14C2900.73 2147.87 2897.55 2152.7 2895.48 2154.89C2893.4 2157.08 2891.05 2160.45 2890.25 2162.39C2889.45 2164.33 2887.34 2167.71 2885.56 2169.91C2883.79 2172.11 2880.88 2176.84 2879.09 2180.41C2876.41 2185.78 2868 2195.93 2868 2193.8C2868 2193.47 2867.13 2194.25 2866.06 2195.55C2864.2 2197.82 2864.06 2197.84 2862.31 2196.13C2860.61 2194.45 2860.47 2190.44 2860 2129.63C2859.71 2093.4 2859.09 2064.03 2858.57 2062.91C2857.44 2060.47 2852.88 2054.18 2851.51 2053.18C2850.95 2052.77 2849.24 2052.44 2847.69 2052.43C2845.27 2052.42 2844.56 2053.13 2842.51 2057.66ZM1857 2054.19C1852.04 2055.93 1852.06 2055.61 1850.48 2155.91C1850.21 2173.37 1849.42 2189.47 1848.51 2196.35C1847.68 2202.64 1847 2213.28 1847 2219.98V2232.18L1851 2235.8C1853.2 2237.79 1855.7 2239.41 1856.55 2239.41C1858.71 2239.41 1863.19 2236.98 1865.1 2234.77C1866.74 2232.88 1870.97 2210.85 1871.71 2200.41C1871.93 2197.39 1872.71 2189.82 1873.44 2183.59C1874.54 2174.3 1875.19 2171.84 1877.06 2169.84C1878.32 2168.51 1880.22 2167.41 1881.28 2167.41C1883.15 2167.41 1898 2181.77 1898 2183.57C1898 2184.06 1902.84 2189.35 1908.75 2195.34C1918.92 2205.64 1931.12 2219.29 1936.08 2225.91C1939.97 2231.11 1947.36 2238.45 1951 2240.72C1955.85 2243.76 1962.97 2245.5 1965.35 2244.22C1966.93 2243.38 1967.16 2242.35 1966.78 2237.84C1966.43 2233.57 1965.81 2232.06 1963.77 2230.45C1962.36 2229.34 1959.63 2226.06 1957.7 2223.17C1955.78 2220.28 1953.11 2217.01 1951.77 2215.91C1950.43 2214.81 1947.47 2211.36 1945.19 2208.24C1942.91 2205.11 1940.2 2201.96 1939.18 2201.24C1938.16 2200.51 1936.17 2198.11 1934.77 2195.91C1933.36 2193.71 1930.76 2190.34 1928.98 2188.41C1927.2 2186.49 1924.09 2182.44 1922.08 2179.41C1920.06 2176.39 1916.9 2172.34 1915.06 2170.41C1910 2165.14 1901.5 2154.29 1899.77 2150.91C1897.3 2146.07 1900.22 2141.21 1913.97 2127.31C1924.18 2116.99 1929.04 2111.74 1931.52 2108.38C1932.78 2106.68 1937.11 2101.61 1941.15 2097.11C1945.19 2092.62 1951.1 2086.01 1954.29 2082.43C1957.47 2078.85 1962.31 2073.59 1965.04 2070.75C1967.77 2067.91 1970 2065.07 1970 2064.45C1970 2063.83 1968.84 2062.16 1967.41 2060.74C1965.03 2058.35 1964.33 2058.19 1958.38 2058.67L1951.93 2059.19L1936.71 2074.9C1924.18 2087.83 1914.57 2097.58 1901.84 2110.25C1894.91 2117.16 1887.09 2125.39 1885.46 2127.51C1881.96 2132.04 1876 2134.09 1876 2130.75C1876 2129.83 1875.7 2129.38 1875.34 2129.74C1874.98 2130.1 1874.08 2129.9 1873.34 2129.28C1872.25 2128.37 1872.12 2122.29 1872.66 2096.03C1873.34 2062.47 1872.91 2057.48 1869.17 2055.53C1867.01 2054.4 1858.94 2053.51 1857 2054.19ZM1715.5 2056.3C1713.26 2056.76 1711.96 2057.97 1710.39 2061.08C1708.35 2065.14 1708.28 2066.74 1707.89 2119.08C1707.68 2148.69 1707.58 2186.32 1707.69 2202.69C1707.86 2230.95 1707.98 2232.65 1709.96 2235.84C1711.1 2237.7 1712.82 2239.59 1713.77 2240.05C1714.72 2240.5 1729 2240.98 1745.5 2241.1C1762 2241.22 1778.2 2241.41 1781.5 2241.51C1795.8 2241.95 1796.93 2241.72 1801.12 2237.53C1803.25 2235.4 1805 2233.1 1805 2232.43C1805 2231.76 1803.53 2229.74 1801.73 2227.95L1798.47 2224.68L1775.98 2224.02C1739.49 2222.95 1732.23 2221.68 1731.2 2216.21C1730.97 2214.95 1730.64 2205.14 1730.47 2194.41C1730.15 2173.8 1731.26 2165.38 1734.92 2160.53C1737.04 2157.7 1739.47 2157.42 1766 2156.92C1793.52 2156.39 1802 2154.22 1802 2147.68C1802 2142.8 1799.74 2136.34 1797.62 2135.18C1796.21 2134.41 1787.94 2133.95 1773 2133.82C1760.62 2133.72 1749.42 2133.37 1748.11 2133.05C1746.79 2132.73 1742.74 2132.39 1739.11 2132.29C1735.47 2132.18 1733.09 2131.89 1733.82 2131.65C1734.79 2131.32 1734.51 2130.52 1732.82 2128.72C1730.61 2126.35 1730.5 2125.55 1730.52 2111.57C1730.54 2088.07 1733.17 2082.16 1745.5 2077.89C1752.85 2075.34 1769.24 2074.76 1776.24 2076.8C1779.3 2077.69 1785.21 2078.41 1789.37 2078.41C1796.29 2078.41 1797.2 2078.17 1800.21 2075.51C1802.02 2073.91 1804.38 2070.95 1805.45 2068.93C1807.77 2064.56 1807.07 2062.92 1801.62 2059.82C1798.2 2057.89 1795.73 2057.68 1767.72 2056.96C1751.1 2056.54 1733.22 2056.08 1728 2055.94C1722.77 2055.8 1717.15 2055.96 1715.5 2056.3ZM2195.76 2057.43C2192.77 2057.79 2190.51 2058.7 2189.64 2059.89C2187.84 2062.35 2187.45 2075.8 2187.1 2148.69C2186.94 2180.47 2186.47 2212.42 2186.06 2219.69C2185.45 2230.37 2185.59 2233.68 2186.79 2236.91C2188.83 2242.38 2190.46 2243.41 2197.04 2243.41C2201.57 2243.41 2203.5 2242.87 2206.72 2240.66C2214.04 2235.65 2216.51 2232.98 2219.89 2226.41C2221.74 2222.84 2224.68 2218.11 2226.43 2215.91C2228.18 2213.71 2231.1 2209.44 2232.91 2206.41C2234.73 2203.39 2237.22 2199.79 2238.44 2198.41C2239.67 2197.04 2242.15 2193.21 2243.95 2189.91C2245.74 2186.61 2248.9 2181.89 2250.96 2179.41C2253.02 2176.93 2255.01 2173.94 2255.38 2172.78C2255.75 2171.61 2258.31 2168.08 2261.07 2164.92C2263.84 2161.77 2267.03 2157.2 2268.17 2154.77C2269.31 2152.34 2272.15 2148.23 2274.47 2145.63C2276.79 2143.04 2279.47 2139.27 2280.42 2137.25C2281.37 2135.23 2283.91 2132.36 2286.06 2130.87C2288.22 2129.38 2291.22 2126.18 2292.74 2123.75C2295.41 2119.5 2298.74 2117.52 2300.95 2118.88C2304.82 2121.28 2306.97 2136.48 2306.99 2161.58C2307 2171.6 2307.33 2175.37 2308.25 2175.7C2309.25 2176.06 2309.24 2176.59 2308.23 2178.3C2307.26 2179.94 2307.2 2181.93 2307.97 2186.68C2308.53 2190.11 2308.99 2202 2308.99 2213.12C2309 2225.61 2309.42 2234.24 2310.09 2235.72C2310.74 2237.15 2313.44 2239.18 2316.72 2240.72C2323.13 2243.71 2324.07 2243.29 2326.53 2236.33C2327.78 2232.79 2328 2219.49 2328 2147.92C2328 2064.22 2327.99 2063.67 2325.93 2061.05C2324.04 2058.65 2323.23 2058.41 2316.81 2058.41C2309.92 2058.41 2309.68 2058.5 2306.13 2062.28C2299.64 2069.19 2295.59 2074.3 2293.51 2078.19C2292.38 2080.29 2289.79 2084.29 2287.75 2087.07C2285.71 2089.85 2282.72 2094.78 2281.1 2098.02C2279.48 2101.26 2276.51 2105.49 2274.5 2107.41C2272.49 2109.34 2270.25 2112.33 2269.52 2114.05C2268.79 2115.78 2266.64 2118.93 2264.75 2121.05C2262.86 2123.18 2259.57 2128.06 2257.43 2131.91C2255.3 2135.75 2252.13 2140.48 2250.39 2142.41C2248.65 2144.34 2246.54 2147.49 2245.71 2149.41C2244.88 2151.34 2242.57 2154.71 2240.59 2156.91C2238.61 2159.11 2235.76 2163.39 2234.26 2166.41C2232.03 2170.92 2226.37 2179.22 2224.03 2181.41C2223.74 2181.69 2221.92 2184.28 2220 2187.16C2218.07 2190.05 2215.74 2192.41 2214.81 2192.41C2213.88 2192.41 2212.84 2192.86 2212.51 2193.4C2212.15 2193.98 2210.97 2193.54 2209.7 2192.35L2207.5 2190.3L2207 2125.46C2206.41 2049.66 2207.46 2056 2195.76 2057.43ZM1266.5 2058.88C1252.4 2060.63 1248.15 2062.03 1243.27 2066.52C1240.95 2068.66 1238.56 2070.41 1237.97 2070.41C1236.14 2070.41 1220.26 2086.97 1218.18 2091.05C1217.1 2093.18 1215.24 2095.79 1214.06 2096.86C1205.43 2104.66 1202.22 2132.73 1205.45 2172.06C1207.1 2192.13 1208.08 2196.18 1212.95 2202.91C1214.93 2205.66 1217.8 2210.39 1219.32 2213.41C1223.19 2221.12 1236.06 2234.22 1243.12 2237.63C1249.72 2240.82 1256.36 2243.17 1264 2245.02C1271.57 2246.84 1289.45 2246.75 1298.79 2244.83C1308.01 2242.94 1326.5 2236.93 1330 2234.67C1336.04 2230.78 1346.13 2219.59 1351.73 2210.56C1359.85 2197.48 1359.25 2198.94 1364.04 2180.41C1368.15 2164.48 1368.3 2163.36 1368.39 2147.91C1368.46 2134.17 1368.18 2131 1366.35 2125.41C1365.19 2121.84 1362.91 2114.59 1361.29 2109.3C1359.26 2102.64 1357.26 2098.34 1354.8 2095.3C1352.84 2092.89 1350.32 2089.08 1349.19 2086.83C1348.06 2084.59 1344.96 2080.53 1342.3 2077.82C1337.12 2072.53 1322.89 2062.1 1319.35 2061.01C1315.14 2059.7 1292.36 2057.43 1284.5 2057.54C1280.1 2057.59 1272 2058.2 1266.5 2058.88ZM1414.31 2059.5C1413.31 2059.87 1411.6 2061.17 1410.51 2062.39C1408.69 2064.42 1408.43 2066.95 1407.41 2093.26C1406.8 2109.02 1406.52 2132.26 1406.78 2144.91C1407.08 2159.43 1406.82 2171.79 1406.07 2178.41C1402.38 2210.83 1401.41 2224.46 1402.4 2229.73C1403.13 2233.6 1407.38 2238.53 1412.11 2240.97C1415.93 2242.95 1418.14 2241.74 1421.63 2235.78C1424.14 2231.51 1424.42 2229.83 1425.6 2212.05C1426.29 2201.52 1427.35 2190.47 1427.94 2187.49C1429.17 2181.29 1433.94 2173.21 1437.25 2171.72C1438.49 2171.17 1443.1 2170.84 1447.5 2171C1453.15 2171.21 1458.88 2170.57 1467 2168.82C1482.58 2165.48 1487.27 2163.83 1491.18 2160.31C1493.01 2158.67 1496.16 2156.45 1498.19 2155.38C1500.22 2154.31 1503.14 2151.74 1504.68 2149.67C1506.21 2147.61 1509.06 2144.33 1511.01 2142.38C1515.04 2138.37 1516.54 2134.15 1518.12 2122.42C1519.04 2115.58 1518.93 2112.22 1517.48 2102.55C1516.53 2096.15 1515.06 2089.57 1514.23 2087.93C1510.54 2080.7 1501.18 2071.8 1488.26 2063.25C1486.87 2062.33 1482.08 2061.11 1477.62 2060.53C1468.31 2059.31 1417.04 2058.48 1414.31 2059.5ZM2380.98 2060.44C2380.39 2061.56 2379.7 2064.6 2379.46 2067.19C2377.33 2090.11 2376.63 2230.26 2378.62 2234.51C2379.24 2235.83 2380.23 2238.12 2380.82 2239.6C2381.98 2242.49 2386.7 2244.4 2392.69 2244.41C2396.66 2244.41 2407.87 2235.31 2410.36 2230.07C2411.26 2228.17 2413.97 2223.98 2416.37 2220.76C2418.78 2217.55 2421.99 2212.44 2423.5 2209.41C2425.02 2206.39 2427.76 2202.24 2429.61 2200.19C2431.45 2198.14 2433.58 2194.99 2434.34 2193.19C2435.1 2191.39 2437.74 2187.21 2440.21 2183.91C2442.67 2180.61 2445.77 2175.71 2447.09 2173.01C2448.42 2170.32 2450.99 2166.72 2452.82 2165.01C2454.64 2163.31 2456.97 2160.1 2458 2157.88C2459.02 2155.65 2461.56 2151.9 2463.64 2149.53C2467.66 2144.94 2468.72 2143.29 2471.8 2136.82C2472.9 2134.5 2475.28 2131.78 2477.31 2130.53C2479.27 2129.32 2482.48 2126.1 2484.43 2123.37C2486.39 2120.65 2488.48 2118.41 2489.06 2118.41C2491.29 2118.41 2493.77 2120.44 2494.83 2123.13C2498.23 2131.72 2499.05 2140.14 2499.58 2171.83C2500.64 2235.7 2500.6 2235.28 2506.87 2241.92C2510.36 2245.62 2514.1 2246.46 2516.49 2244.06C2519.68 2240.87 2520.04 2231.27 2519.93 2151.5C2519.87 2107.82 2519.47 2069.82 2519.03 2067.06C2517.94 2060.16 2515.6 2058.41 2507.47 2058.41C2501.75 2058.41 2500.86 2058.7 2498.08 2061.49C2496.38 2063.18 2495 2064.96 2495 2065.43C2495 2065.91 2492.75 2068.87 2490 2072.01C2487.25 2075.15 2485 2078.31 2485 2079.03C2485 2079.75 2482.52 2083.97 2479.5 2088.41C2476.48 2092.85 2473.13 2098.16 2472.07 2100.2C2471 2102.24 2468.51 2105.71 2466.52 2107.91C2464.54 2110.11 2461.99 2113.71 2460.85 2115.91C2459.71 2118.11 2457.1 2122.16 2455.07 2124.91C2453.03 2127.66 2450.1 2132.23 2448.57 2135.07C2447.04 2137.91 2444.25 2141.86 2442.37 2143.85C2440.49 2145.84 2437.82 2150.03 2436.44 2153.15C2435.06 2156.28 2432.21 2161.1 2430.11 2163.88C2428.02 2166.65 2425.52 2170.44 2424.57 2172.28C2423.61 2174.13 2421.12 2177.5 2419.03 2179.78C2416.95 2182.05 2413.58 2187.43 2411.55 2191.72C2408.93 2197.25 2407.14 2199.79 2405.36 2200.47C2401.55 2201.92 2399.22 2200.12 2398.5 2195.16C2398.16 2192.83 2398.1 2165.04 2398.36 2133.41C2398.63 2101.79 2398.47 2072.56 2398.02 2068.47C2397.02 2059.52 2395.9 2058.41 2387.84 2058.41C2383.07 2058.41 2381.88 2058.76 2380.98 2060.44ZM879.999 2060.55C867.705 2061.54 866.793 2061.86 851.999 2070.34C843.106 2075.44 839.673 2079.07 836.995 2086.19C835.904 2089.08 833.797 2093.81 832.314 2096.69C829.944 2101.28 829.615 2103.07 829.604 2111.41C829.592 2120.29 829.859 2121.55 833.665 2130.6C836.49 2137.31 839.304 2142.06 842.841 2146.1C853.408 2158.14 857.004 2162.86 857.156 2164.85C857.242 2165.99 857.414 2168.26 857.538 2169.91C857.679 2171.78 856.883 2174.09 855.44 2176.02C854.161 2177.73 851.24 2183.13 848.95 2188.02C846.66 2192.91 843.278 2198.58 841.436 2200.62C839.593 2202.65 837.118 2206.26 835.935 2208.62C834.751 2210.98 832.542 2214.26 831.025 2215.91C824.128 2223.42 815.775 2242.15 818.369 2244.31C820.229 2245.85 829.521 2246.55 832.643 2245.37C838.321 2243.24 843.085 2239.01 847.654 2232.03C850.216 2228.12 852.95 2224.54 853.73 2224.07C854.51 2223.61 855.987 2221.28 857.012 2218.89C858.036 2216.49 861.04 2211.33 863.687 2207.41C866.334 2203.48 869.681 2198.35 871.125 2196.01C875.429 2189.01 888.946 2171.51 890.82 2170.51C893.441 2169.11 906.26 2168.08 911.433 2168.85C919.725 2170.1 921.017 2176.11 920.731 2212.1C920.496 2241.6 920.878 2243.9 926.312 2245.69C929.208 2246.65 936.499 2245.98 938.797 2244.55C942.11 2242.48 942.988 2233.48 943.54 2195.91C943.839 2175.56 944.521 2146.76 945.055 2131.91C945.589 2117.06 946.313 2096.36 946.663 2085.9L947.3 2066.88L944.9 2064.09C943.438 2062.4 940.934 2060.99 938.499 2060.5C932.989 2059.39 894.025 2059.42 879.999 2060.55ZM1066.49 2061.69C1063.07 2064.68 1062.29 2070.15 1061.04 2100.41C1060.48 2113.89 1059.35 2131.66 1058.54 2139.91C1056.52 2160.35 1054.89 2188.66 1054.27 2214.18L1053.75 2235.45L1057.42 2238.9C1061.28 2242.54 1067.75 2245.11 1070.45 2244.07C1071.33 2243.73 1073.01 2241.31 1074.18 2238.69C1076.05 2234.5 1076.4 2231.17 1077.08 2211.41C1078.07 2182.85 1078.6 2180.53 1085.21 2176.04C1093.01 2170.75 1092.17 2170.6 1100.93 2178.97C1105.31 2183.16 1110.26 2188.68 1111.93 2191.25C1113.59 2193.82 1118.4 2199.51 1122.62 2203.91C1126.83 2208.31 1132.65 2215.11 1135.53 2219.01C1138.42 2222.91 1145.37 2230.67 1150.99 2236.26L1161.2 2246.41H1167.03C1170.92 2246.41 1173.36 2245.91 1174.38 2244.89C1175.75 2243.52 1175.65 2242.99 1173.45 2239.75C1172.1 2237.76 1171 2235.48 1171 2234.68C1171 2232.82 1167.39 2227.74 1163.74 2224.46C1162.18 2223.06 1159.91 2220.26 1158.7 2218.25C1154.28 2210.88 1143.24 2196.77 1132.29 2184.49C1126.13 2177.57 1119.29 2169.87 1117.09 2167.37C1113.01 2162.72 1109.8 2156.36 1108.7 2150.75C1108.01 2147.21 1108.48 2146.44 1118.45 2134.91C1125.75 2126.47 1159.5 2089.72 1165.75 2083.41C1168.2 2080.94 1171.02 2077.34 1172.01 2075.41C1172.99 2073.49 1174.97 2070.82 1176.4 2069.49C1181.57 2064.67 1178.64 2061.41 1169.11 2061.41C1164.39 2061.41 1164.27 2061.5 1151.93 2073.46C1145.09 2080.08 1139.05 2085.96 1138.5 2086.53C1119.02 2106.64 1093.82 2130.88 1091.3 2131.93C1089.49 2132.69 1088 2133.87 1088 2134.56C1088 2135.54 1087.73 2135.55 1086.8 2134.61C1085.04 2132.85 1084 2133.15 1084 2135.41C1084 2139.94 1082.1 2136.95 1080.98 2130.66C1079.96 2124.93 1080.11 2120.32 1082 2099.91C1084.02 2078.05 1084.15 2067.57 1082.44 2063.11C1082.08 2062.18 1080.22 2061.22 1078.15 2060.9C1076.14 2060.59 1073.27 2060.14 1071.77 2059.9C1069.93 2059.61 1068.21 2060.2 1066.49 2061.69ZM1564.23 2060.53C1559.22 2061.71 1557.37 2064.11 1556.61 2070.41C1555.91 2076.15 1554.49 2169.27 1554.54 2205.41C1554.59 2238.79 1554.72 2239.32 1563.52 2241.88C1566.66 2242.79 1569.78 2243.33 1570.46 2243.07C1572.86 2242.15 1575.36 2234.78 1576.1 2226.41C1576.52 2221.74 1576.89 2210.94 1576.93 2202.41C1577.02 2185.42 1577.96 2180.13 1581.3 2177.97C1585.67 2175.15 1595.7 2172.47 1605.62 2171.48C1611.19 2170.92 1616.95 2170 1618.44 2169.44C1619.92 2168.87 1622.24 2168.41 1623.6 2168.41C1628.72 2168.41 1641.98 2163.18 1646.27 2159.47C1648.59 2157.45 1651.96 2154.79 1653.74 2153.54C1655.53 2152.3 1658.19 2149.18 1659.66 2146.6C1661.13 2144.02 1663.16 2140.98 1664.18 2139.83C1665.2 2138.69 1666.97 2135.09 1668.13 2131.83C1669.96 2126.65 1670.17 2124.27 1669.78 2112.63L1669.34 2099.35L1663.42 2087.79C1657.2 2075.63 1656.45 2074.79 1645.91 2068.04C1634.01 2060.42 1632.42 2060.14 1598.5 2059.81C1580.72 2059.64 1566.76 2059.93 1564.23 2060.53ZM87.78 2060.93C87.625 2061.06 85.024 2061.43 81.999 2061.76C74.381 2062.57 70.316 2063.7 64.499 2066.62C61.749 2068.01 57.699 2069.71 55.499 2070.4C43.934 2074.02 31.725 2083.4 23.315 2095.13C16.876 2104.1 14.775 2108.42 8.82701 2124.91L4.499 2136.91L4.195 2158.07C3.898 2178.69 3.957 2179.42 6.486 2186.57C7.913 2190.61 10.184 2197.93 11.533 2202.83C14.376 2213.18 16.883 2218.66 20.783 2223.05C22.315 2224.78 24.844 2228.15 26.402 2230.55C31.255 2238.03 48.579 2248.53 57.999 2249.71C60.474 2250.02 65.424 2250.82 68.999 2251.48C74.979 2252.58 102.525 2252.94 105.999 2251.96C106.824 2251.73 110.424 2251.26 113.999 2250.93C122.711 2250.11 130.403 2247.68 132.991 2244.92C134.712 2243.09 135.054 2241.66 134.806 2237.32C134.534 2232.58 134.138 2231.74 131.298 2229.83C127.92 2227.56 123.973 2227.47 116.999 2229.51C115.074 2230.07 110.799 2230.95 107.499 2231.45C104.199 2231.96 99.474 2232.81 96.999 2233.35C85.259 2235.9 74.836 2234.43 59.69 2228.1C52.886 2225.26 50.863 2223.56 45.585 2216.3C37.873 2205.69 35.727 2199.94 32.598 2181.49C29.876 2165.44 30.781 2150.15 35.62 2130.42C38.569 2118.41 49.315 2100.42 56.235 2095.91C63.667 2091.08 73.458 2085 73.999 2084.88C74.274 2084.82 76.524 2084.18 78.999 2083.45C83.969 2081.98 109.641 2081.72 126.153 2082.97C134.929 2083.63 136.11 2083.51 139.153 2081.61C143.866 2078.68 145.37 2075.99 143.757 2073.38C143.065 2072.26 141.374 2071.07 139.999 2070.74C138.624 2070.41 134.574 2068.79 130.999 2067.14C121.696 2062.83 114.194 2061.33 100.28 2060.99C93.56 2060.82 87.935 2060.79 87.78 2060.93ZM433.117 2061.52C425.631 2063.06 425.382 2063.38 415.707 2084.41C414.568 2086.89 413.326 2089.14 412.946 2089.41C411.913 2090.16 407.999 2099.09 407.999 2100.7C407.999 2101.47 405.503 2106.95 402.452 2112.87C399.401 2118.8 395.845 2126.89 394.551 2130.85C393.256 2134.82 390.84 2140.28 389.181 2142.99C387.521 2145.7 384.916 2150.97 383.39 2154.7C381.865 2158.43 379.158 2163.12 377.374 2165.12C374.647 2168.19 373.889 2168.57 372.604 2167.5C371.764 2166.8 370.771 2165.26 370.398 2164.07C370.024 2162.89 367.705 2159.35 365.244 2156.21C362.423 2152.61 359.725 2147.51 357.944 2142.43C356.391 2137.99 353.8 2132.68 352.188 2130.63C350.575 2128.59 348.066 2123.08 346.611 2118.4C345.157 2113.71 342.493 2107.41 340.691 2104.4C338.89 2101.38 336.612 2096.66 335.63 2093.91C333.169 2087.03 332.061 2084.72 328.313 2078.7C326.527 2075.83 323.927 2071.23 322.534 2068.48C321.141 2065.74 319.131 2063.02 318.066 2062.45C315.576 2061.12 304.93 2061.11 301.437 2062.44C299.086 2063.33 298.812 2063.88 299.276 2066.73C299.568 2068.54 301.848 2072.99 304.342 2076.63C306.836 2080.27 310.115 2086.78 311.629 2091.08C313.143 2095.39 315.863 2101.09 317.674 2103.75C320.459 2107.85 324.999 2119.84 324.999 2123.11C324.999 2123.64 326.776 2126.62 328.948 2129.72C331.185 2132.91 333.836 2138.51 335.062 2142.64C336.253 2146.64 338.076 2151.11 339.113 2152.57C340.15 2154.03 340.999 2155.57 340.999 2155.99C340.999 2156.41 341.64 2157.47 342.423 2158.33C343.206 2159.2 345.499 2164.85 347.517 2170.89C349.536 2176.93 351.949 2183.01 352.879 2184.39C354.853 2187.33 356.536 2190.75 358.007 2194.81C359.435 2198.74 357.133 2204.67 350.233 2214.82C343.722 2224.41 342.167 2225.7 333.934 2228.31C326.451 2230.68 319.038 2231.23 310.223 2230.05C301.961 2228.95 300.999 2229.76 300.999 2237.88C300.999 2244.75 301.828 2246.01 307.999 2248.5C313.429 2250.69 335.908 2250.35 343.539 2247.95C346.817 2246.92 350.655 2245.36 352.067 2244.5C362.956 2237.79 376.121 2221.98 382.544 2207.88C384.38 2203.86 387.009 2198.77 388.386 2196.59C389.763 2194.41 392.313 2188.55 394.053 2183.57C395.793 2178.59 398.735 2172.15 400.59 2169.27C402.446 2166.39 404.689 2161.76 405.575 2158.98C406.462 2156.19 409.109 2150.54 411.458 2146.41C413.808 2142.29 416.944 2135.54 418.428 2131.41C419.911 2127.29 422.409 2121.89 423.978 2119.41C425.547 2116.94 428.447 2110.88 430.422 2105.95C432.397 2101.03 435.135 2095.3 436.507 2093.22C439.02 2089.43 444.356 2074.68 445.387 2068.68C446.346 2063.1 440.907 2059.93 433.117 2061.52ZM517.944 2062.08C515.473 2063.12 514.706 2064.77 510.725 2077.58C505.836 2093.32 504.733 2098.69 501.967 2120.26C501.438 2124.38 499.972 2129.64 498.621 2132.26C494.221 2140.78 492.974 2144.23 491.084 2153.11C488.889 2163.42 488.007 2165.86 484.42 2171.54C482.954 2173.86 480.526 2179.4 479.025 2183.84C477.523 2188.28 475.216 2193.89 473.897 2196.3C472.578 2198.71 470.734 2202.08 469.799 2203.8C468.864 2205.51 467.131 2209.75 465.947 2213.23C463.44 2220.58 457.679 2226.83 451.783 2228.6C449.72 2229.22 447.348 2230.48 446.512 2231.4C443.855 2234.34 442.765 2244.3 442.63 2266.91C442.464 2294.73 442.539 2294.95 452.218 2294.84C455.879 2294.8 459.528 2294.22 460.326 2293.56C462.409 2291.83 463.825 2285.3 464.983 2272.1C465.539 2265.75 466.417 2259.45 466.933 2258.09C467.449 2256.73 467.677 2255.43 467.439 2255.19C466.321 2254.07 472.149 2250.56 477.999 2248.83C483.111 2247.32 487.488 2246.93 498.499 2246.97C519.345 2247.06 577.191 2249.14 579.557 2249.89C583.654 2251.19 585.008 2255.97 585.95 2272.43C587.142 2293.26 588.377 2296.11 595.673 2294.9C604.729 2293.39 606.426 2291.55 608.085 2281.41C609.392 2273.42 609.344 2243.78 608.014 2237.76C606.639 2231.54 604.525 2229.44 598.506 2228.32C592.456 2227.19 589.212 2224.68 588.387 2220.5C587.796 2217.5 590.136 2179.97 591.416 2171.91C593.606 2158.14 595.496 2072.47 593.748 2066.24C593.115 2063.98 592.169 2063.39 587.748 2062.48C580.184 2060.92 521.492 2060.58 517.944 2062.08ZM768.363 2061.17C765.353 2061.67 757.621 2069.04 753.907 2074.94C752.184 2077.67 749.137 2081.92 747.136 2084.38C743.55 2088.77 741.736 2091.47 740.392 2094.41C740.015 2095.24 738.062 2098.16 736.052 2100.91C734.041 2103.66 731.301 2107.71 729.962 2109.91C728.623 2112.11 725.666 2116.2 723.392 2118.99C721.117 2121.78 718.523 2125.62 717.627 2127.5C716.731 2129.39 714.968 2132.06 713.709 2133.43C711.076 2136.29 703.999 2147.72 703.999 2149.11C703.999 2149.62 702.592 2151.36 700.873 2152.98C699.154 2154.59 695.812 2158.9 693.446 2162.56C691.081 2166.22 688.639 2169.52 688.019 2169.9C687.399 2170.29 684.442 2174.4 681.448 2179.04C678.454 2183.68 675.346 2187.73 674.54 2188.04C673.735 2188.35 671.639 2187.88 669.884 2187.01C668.128 2186.13 666.122 2185.41 665.425 2185.41C662.487 2185.41 661.627 2155.92 664.098 2139.91C665.97 2127.78 666.106 2065.13 664.264 2063.28C663.585 2062.6 660.306 2061.85 656.978 2061.61C648.795 2061.01 647.521 2062.26 646.162 2072.22C645.584 2076.45 644.838 2092.06 644.504 2106.91C643.959 2131.14 641.593 2172.73 640.465 2177.91C639.502 2182.34 636.971 2215.65 636.776 2226.46C636.582 2237.17 636.738 2238.24 638.932 2241.32C642.882 2246.87 650.481 2248.83 658.1 2246.27C659.969 2245.64 662.343 2244.41 663.374 2243.52C665.496 2241.7 673.922 2229.87 678.64 2222.09C680.367 2219.24 683.354 2215.11 685.278 2212.91C687.202 2210.71 690.482 2205.76 692.567 2201.91C694.652 2198.06 697.826 2193.25 699.622 2191.22C701.417 2189.19 703.544 2186.27 704.347 2184.72C705.151 2183.18 707.028 2180.79 708.519 2179.41C710.009 2178.04 713.381 2173.76 716.011 2169.91C718.641 2166.06 721.74 2161.92 722.896 2160.71C724.053 2159.49 724.999 2158.23 724.999 2157.91C724.999 2156.65 732.482 2145.69 736.26 2141.41C738.448 2138.94 740.678 2135.96 741.216 2134.8C741.754 2133.64 744.228 2131.4 746.712 2129.83C749.197 2128.26 752.356 2125.5 753.733 2123.7C756.907 2119.54 760.325 2119.31 761.832 2123.16C763.525 2127.49 764.251 2157.37 763.077 2174.41C762.49 2182.94 761.515 2199.46 760.911 2211.12C759.911 2230.41 759.969 2232.81 761.548 2237.56C764.624 2246.82 771.007 2250.24 775.757 2245.16C779.931 2240.71 782.972 2223.59 784.95 2193.41C786.037 2176.82 787.312 2069.51 786.461 2066.12C786.123 2064.77 784.868 2063.19 783.673 2062.61C781.344 2061.47 771.884 2060.58 768.363 2061.17ZM207.798 2062.41C175.949 2062.73 156.75 2063.29 156.164 2063.91C154.417 2065.79 149.999 2074.89 149.999 2076.62C149.999 2077.57 150.998 2078.88 152.219 2079.53C155.813 2081.45 169.941 2083.18 177.499 2082.61C181.349 2082.33 187.831 2082.13 191.904 2082.18C198.485 2082.26 199.597 2082.56 201.904 2084.87L204.499 2087.47L204.566 2116.19C204.602 2131.99 204.189 2167.09 203.648 2194.18L202.664 2243.46L205.582 2246.54C208.374 2249.48 208.771 2249.59 214.857 2249.12C218.51 2248.84 221.838 2248 222.68 2247.16C225.313 2244.53 225.979 2238.35 227.016 2206.91C229.403 2134.53 231.377 2100.84 233.468 2096.83C234.303 2095.22 234.989 2092.97 234.993 2091.82C235 2089.41 237.292 2086.53 241.253 2083.96C243.578 2082.46 247.256 2082.08 264.898 2081.55C290.164 2080.78 289.999 2080.85 289.999 2070.42V2063.73L284.749 2062.64C281.862 2062.03 274.774 2061.62 268.999 2061.73C263.224 2061.83 235.684 2062.14 207.798 2062.41ZM3377 2074.83C3382.78 2075.78 3384.26 2076.19 3390 2078.46C3401.07 2082.83 3400.02 2081.85 3407.99 2095.11C3409.91 2098.3 3412.03 2103.51 3412.68 2106.68C3413.73 2111.72 3413.65 2113.11 3412.04 2117.68C3409.38 2125.25 3407.73 2128.7 3405.73 2130.94C3404.76 2132.02 3402.66 2134.51 3401.06 2136.46C3396.07 2142.55 3380.1 2146.41 3359.92 2146.41H3347.45L3345.48 2142.74C3343.62 2139.28 3343.52 2137.44 3343.86 2111.77C3344.1 2093.35 3344.62 2083.25 3345.48 2080.69C3347.43 2074.84 3351.02 2073.48 3363.36 2073.91C3368.94 2074.1 3375.07 2074.51 3377 2074.83ZM1302.01 2076.85C1306.13 2078.19 1311.97 2080.21 1314.98 2081.35C1318 2082.49 1320.56 2083.41 1320.66 2083.41C1320.76 2083.41 1324.18 2087.21 1328.25 2091.85C1336.13 2100.84 1337.06 2102.94 1340.53 2119.41C1341.4 2123.54 1342.57 2128.49 1343.13 2130.41C1344.7 2135.82 1345.36 2156.26 1344.14 2161.91C1343.55 2164.66 1342.37 2170.06 1341.52 2173.91C1340.13 2180.19 1339.05 2185.29 1337.34 2193.65C1337.03 2195.15 1335.13 2198.3 1333.11 2200.65C1331.1 2203 1328.34 2206.58 1326.99 2208.61C1325.64 2210.64 1322.82 2213.34 1320.73 2214.61C1318.64 2215.88 1315.03 2218.29 1312.71 2219.97C1304.66 2225.81 1299.46 2226.92 1280.5 2226.85C1265.5 2226.8 1262.95 2226.55 1258.85 2224.7C1256.29 2223.56 1253.36 2221.78 1252.34 2220.75C1251.31 2219.73 1248.9 2217.79 1246.98 2216.44C1243.48 2213.99 1238.05 2208.45 1238.02 2207.3C1238.01 2206.97 1236.66 2205 1235.01 2202.93C1231.52 2198.54 1230.54 2195.44 1228.36 2181.91C1226.24 2168.72 1226.28 2145.45 1228.45 2129.07C1230.38 2114.5 1231.9 2109.42 1235.82 2104.41C1237.32 2102.49 1239.08 2099.7 1239.73 2098.22C1241.37 2094.45 1247.76 2087.59 1252.28 2084.74C1256.12 2082.31 1266.82 2078.15 1275 2075.9C1282.84 2073.74 1293.63 2074.12 1302.01 2076.85ZM916.967 2083.06C921.967 2088.41 923.368 2095.62 922.564 2111.87C921.549 2132.36 920.142 2145.87 918.981 2146.25C918.421 2146.44 917.26 2147.3 916.401 2148.16C913.376 2151.18 902.819 2150.93 886.11 2147.44C877.711 2145.68 869.353 2143.62 867.538 2142.87C863.607 2141.22 859.233 2136.3 858.398 2132.59C858.068 2131.12 857.347 2128.12 856.796 2125.92C855.657 2121.39 856.676 2101.73 858.095 2100.85C858.592 2100.55 858.999 2099.6 858.999 2098.75C858.999 2095.15 870.796 2083.81 875.787 2082.61C881.09 2081.33 897.697 2079.79 905.281 2079.86C913.767 2079.95 914.161 2080.06 916.967 2083.06ZM1469 2081.05C1481.78 2082.43 1489.33 2087.7 1492.44 2097.38C1494.35 2103.35 1494.7 2119.37 1493.09 2126.91C1490.76 2137.87 1487.76 2140.88 1472.82 2147.24C1467.39 2149.56 1461.09 2150.9 1448.47 2152.43C1439.42 2153.53 1437.17 2153.24 1431.26 2150.23L1429.02 2149.09L1429.32 2124.5C1429.48 2110.98 1429.91 2098.79 1430.27 2097.41C1430.63 2096.04 1431.14 2093.2 1431.4 2091.1C1431.95 2086.57 1436.08 2080.76 1439.25 2080.05C1441.75 2079.5 1460.45 2080.13 1469 2081.05ZM1619 2081.9C1621.47 2082.2 1624.4 2082.63 1625.5 2082.85C1626.6 2083.08 1628.22 2083.3 1629.11 2083.34C1629.99 2083.38 1633.99 2087.04 1637.99 2091.47C1644.64 2098.84 1645.39 2100.1 1646.66 2106.19C1647.43 2109.86 1647.83 2113.99 1647.55 2115.39C1647.26 2116.78 1646.79 2119.42 1646.49 2121.25C1645.79 2125.49 1640.95 2135.14 1637.39 2139.36C1634.27 2143.07 1622.63 2148.93 1614.2 2151.05C1606.61 2152.95 1584.34 2153.95 1580.78 2152.55C1579.1 2151.9 1577.79 2150.44 1577.37 2148.76C1576.35 2144.7 1578.61 2092.44 1579.97 2088.75C1580.88 2086.28 1582.25 2085.15 1586.32 2083.55C1589.17 2082.43 1592.62 2081.35 1594 2081.16C1597.16 2080.71 1613.05 2081.18 1619 2081.9ZM556.52 2084.33C557.973 2084.45 561.631 2088.28 564.52 2092.7C568.335 2098.55 569.227 2107.17 568.06 2126.91C566.23 2157.9 565.086 2178.67 564.013 2200.41C562.823 2224.54 562.479 2226.99 560.145 2227.98C559.24 2228.37 544.719 2228.9 527.877 2229.17C493.905 2229.71 491.177 2229.37 489.314 2224.44C487.771 2220.35 488.935 2216.05 494.245 2206.21C496.708 2201.65 499.72 2194.76 500.94 2190.91C502.159 2187.06 504.922 2180.23 507.079 2175.72C509.236 2171.22 512.146 2163.79 513.544 2159.22C514.943 2154.65 517.467 2147.54 519.153 2143.41C520.84 2139.29 523.502 2129.9 525.069 2122.55C528.772 2105.19 531.515 2096.41 533.243 2096.41C533.659 2096.41 534.005 2095.85 534.011 2095.16C534.032 2093.15 541.637 2085.53 544.174 2084.99C549.39 2083.87 550.188 2083.83 556.52 2084.33ZM2694.64 2105.55C2698.69 2109.35 2699.22 2114.03 2699.23 2145.91C2699.25 2194.17 2696.97 2201.48 2683.65 2195.91C2681.68 2195.09 2678.73 2194.41 2677.09 2194.41C2675.46 2194.41 2673.84 2193.96 2673.5 2193.41C2673.16 2192.86 2672.09 2192.41 2671.13 2192.41C2667.18 2192.41 2660.89 2188.17 2656.15 2182.3C2651.79 2176.92 2650.53 2174.29 2649.48 2168.41C2648.4 2162.36 2648.13 2145.75 2649 2138.58C2650.7 2124.54 2651.52 2122.58 2658.36 2116.09C2665.16 2109.65 2670.73 2106.63 2679 2104.93C2688.66 2102.95 2692.02 2103.08 2694.64 2105.55ZM2751.5 2107.49C2753.15 2108.02 2757.91 2111.71 2762.09 2115.68L2769.68 2122.91L2772.5 2133.91C2776.26 2148.55 2776.32 2153.57 2772.85 2166.82C2769.45 2179.78 2766.43 2184.96 2759.58 2189.52C2756.79 2191.39 2754.35 2193.25 2754.17 2193.66C2753.98 2194.08 2753.21 2194.41 2752.46 2194.41C2751.7 2194.41 2749.48 2195.5 2747.52 2196.84C2743.89 2199.3 2736.26 2201.41 2731.01 2201.41C2729.38 2201.41 2726.88 2200.35 2725.3 2199L2722.5 2196.58L2722.7 2180.25C2722.82 2171.26 2723.32 2152.59 2723.83 2138.75C2724.67 2115.51 2724.91 2113.35 2726.87 2110.6C2728.19 2108.74 2730.4 2107.26 2732.75 2106.68C2737.01 2105.61 2747.02 2106.05 2751.5 2107.49ZM3544 2157.89C3548.58 2158.7 3555.53 2162.26 3562.29 2167.26C3568.67 2171.98 3569.99 2175.53 3570.01 2188.11C3570.02 2194.49 3569.52 2197.04 3567.26 2202.09C3565.56 2205.9 3563.75 2208.47 3562.54 2208.8C3561.47 2209.09 3560.88 2209.63 3561.25 2209.99C3562.14 2210.89 3559.5 2213.41 3557.68 2213.41C3556.87 2213.41 3555.95 2214.09 3555.64 2214.91C3555.32 2215.74 3554.12 2216.41 3552.98 2216.41C3551.84 2216.41 3549.63 2217.07 3548.08 2217.87C3544.12 2219.92 3534.64 2220.92 3519.5 2220.89C3511.21 2220.87 3505.71 2220.42 3504.33 2219.64C3501.38 2217.99 3500.71 2210.97 3501.17 2186.36C3501.46 2170.49 3501.84 2166.34 3503.22 2163.8C3504.79 2160.91 3508.67 2158.37 3513.5 2157.07C3515.96 2156.41 3539.18 2157.04 3544 2157.89Z" fill="black"/>
</svg>
