<?xml version="1.0" encoding="UTF-8"?>
<!-- Generated by Pixelmator Pro 3.3 -->
<svg width="32" height="32" viewBox="0 0 32 32" xmlns="http://www.w3.org/2000/svg" xmlns:xlink="http://www.w3.org/1999/xlink">
    <path id="Path" fill="#ffffff" stroke="#ffffff" stroke-width="0.065708" d="M 20.244764 18.263657 C 20.244764 20.609444 18.345791 22.508419 16 22.508419 C 13.65421 22.508419 11.755236 20.609444 11.755236 18.263657 C 11.755236 15.917866 13.65421 14.018892 16 14.018892 C 18.345791 14.018892 20.244764 15.917866 20.244764 18.263657 Z M 28.931416 7.625462 C 30.626694 7.625462 32 8.998768 32 10.694046 L 32 18.736755 L 32 25.557289 C 32 27.364271 30.534702 28.829569 28.727722 28.829569 L 3.272279 28.829569 C 1.465298 28.829569 0 27.364271 0 25.557289 L 0 18.730185 L 0 10.694046 L 0 10.694046 C 0 8.998768 1.373306 7.625462 3.068583 7.625462 L 9.20575 7.625462 L 9.494866 6.403286 C 9.935113 4.510883 11.623818 3.170433 13.568789 3.170433 L 18.437782 3.170433 C 20.382753 3.170433 22.071457 4.510883 22.511703 6.403286 L 22.79425 7.625462 L 28.931416 7.625462 Z M 6.4 12.054209 C 6.4 11.20657 5.710062 10.516634 4.862423 10.516634 C 4.008214 10.516634 3.318275 11.20657 3.318275 12.054209 C 3.318275 12.901848 4.008214 13.591787 4.855852 13.591787 C 5.710062 13.598356 6.4 12.908419 6.4 12.054209 Z M 23.569613 18.263657 C 23.569613 14.0846 20.179056 10.694046 16 10.694046 C 11.820944 10.694046 8.43039 14.0846 8.43039 18.263657 C 8.43039 22.442711 11.820944 25.833265 16 25.833265 C 20.179056 25.833265 23.569613 22.442711 23.569613 18.263657 Z"/>
</svg>
