<?xml version="1.0" encoding="UTF-8"?>
<!-- Generated by Pixelmator Pro 3.3 -->
<svg width="32" height="32" viewBox="0 0 32 32" xmlns="http://www.w3.org/2000/svg" xmlns:xlink="http://www.w3.org/1999/xlink">
    <path id="Path" fill="#ffffff" fill-rule="evenodd" stroke="none" d="M 6.70275 15.47575 C 12.07035 13.0373 15.64365 11.417 17.43795 10.630951 C 22.544849 8.401051 23.618349 8.01605 24.3085 8 C 24.461849 8 24.79925 8.032101 25.029301 8.2246 C 25.213301 8.385 25.25935 8.59355 25.290001 8.754 C 25.32065 8.9144 25.351351 9.251301 25.32065 9.507999 C 25.0446 12.556 23.8484 19.95155 23.234949 23.352501 C 22.974251 24.796301 22.468149 25.277599 21.9774 25.325701 C 20.9039 25.421949 20.091101 24.587749 19.063601 23.881901 C 17.43795 22.775 16.53315 22.08515 14.9535 20.994301 C 13.12855 19.743 14.3094 19.05315 15.35225 17.930201 C 15.6283 17.641451 20.336451 13.149601 20.428499 12.74855 C 20.4438 12.700401 20.4438 12.5079 20.336451 12.41165 C 20.229099 12.315399 20.07575 12.34745 19.953051 12.379551 C 19.784349 12.41165 17.207899 14.208401 12.19305 17.75375 C 11.4569 18.28315 10.79745 18.539801 10.19935 18.52375 C 9.5399 18.5077 8.28235 18.13875 7.3315 17.8179 C 6.1813 17.432899 5.26115 17.22435 5.33785 16.55055 C 5.38385 16.197651 5.84395 15.8447 6.70275 15.47575 Z"/>
</svg>
