<?xml version="1.0" encoding="UTF-8"?>
<!-- Generated by Pixelmator Pro 3.3 -->
<svg width="32" height="32" viewBox="0 0 32 32" xmlns="http://www.w3.org/2000/svg" xmlns:xlink="http://www.w3.org/1999/xlink">
    <path id="Path" fill="#ffffff" fill-rule="evenodd" stroke="none" d="M 15.422571 23.001717 L 16.680571 23.001717 C 16.680571 23.001717 17.060572 22.959999 17.254572 22.750856 C 17.433142 22.558857 17.427427 22.198286 17.427427 22.198286 C 17.427427 22.198286 17.402857 20.510286 18.186285 20.261715 C 18.958572 20.016857 19.950285 21.893143 21.001429 22.614571 C 21.796286 23.160572 22.400286 23.040855 22.400286 23.040855 L 25.210857 23.001717 C 25.210857 23.001717 26.681143 22.911144 25.983999 21.755142 C 25.926859 21.660572 25.578001 20.900002 23.894285 19.337143 C 22.132 17.701429 22.368 17.966 24.490858 15.136572 C 25.783712 13.413427 26.300571 12.361429 26.139143 11.910856 C 25.985142 11.481714 25.034286 11.595142 25.034286 11.595142 L 21.869715 11.614857 C 21.869715 11.614857 21.635143 11.582857 21.461142 11.686857 C 21.291142 11.788858 21.181715 12.026571 21.181715 12.026571 C 21.181715 12.026571 20.680859 13.360001 20.012857 14.493999 C 18.603714 16.886856 18.040285 17.013144 17.809999 16.864571 C 17.274286 16.518286 17.408001 15.473429 17.408001 14.731144 C 17.408001 12.412287 17.759714 11.445429 16.723143 11.195143 C 16.379143 11.112 16.126001 11.057142 15.246285 11.048285 C 14.117143 11.036572 13.161428 11.051714 12.620286 11.316858 C 12.260285 11.493143 11.982572 11.886 12.151713 11.908571 C 12.360857 11.936571 12.834572 12.036285 13.085714 12.378284 C 13.410001 12.819427 13.398572 13.810286 13.398572 13.810286 C 13.398572 13.810286 13.584857 16.540001 12.963429 16.879143 C 12.536858 17.111715 11.951715 16.636856 10.695428 14.466 C 10.051714 13.354 9.565714 12.124857 9.565714 12.124857 C 9.565714 12.124857 9.472 11.895142 9.304857 11.772284 C 9.102 11.623428 8.818571 11.576 8.818571 11.576 L 5.811429 11.595715 C 5.811429 11.595715 5.36 11.608286 5.194286 11.804571 C 5.046857 11.979143 5.182571 12.340286 5.182571 12.340286 C 5.182571 12.340286 7.536857 17.848286 10.202571 20.624001 C 12.646857 23.168858 15.422571 23.001717 15.422571 23.001717 Z"/>
</svg>
