<svg width="535" height="529" viewBox="0 0 535 529" fill="none" xmlns="http://www.w3.org/2000/svg">
<path fill-rule="evenodd" clip-rule="evenodd" d="M235.5 1.001C232.75 1.454 226.787 1.864 222.25 1.912C215.959 1.979 214 2.327 214 3.375C214 5.06 209.658 6 201.875 6C196.797 6 196 6.254 196 7.875C196 9.941 192.57 11 185.875 11C182.667 11 182 11.344 182 13C182 14.795 181.333 15 175.5 15C169.735 15 169 15.219 169 16.939C169 18.47 168.054 19.019 164.5 19.552C161.77 19.962 160 20.748 160 21.552C160 22.356 158.23 23.143 155.5 23.552C152.057 24.069 151 24.656 151 26.052C151 27.449 149.943 28.036 146.5 28.552C143.676 28.976 142 29.739 142 30.602C142 31.432 140.417 32.23 138 32.616C135.092 33.081 134 33.736 134 35.014C134 36.332 132.872 36.942 129.5 37.448C125.946 37.981 125 38.53 125 40.061C125 41.463 124.307 42 122.5 42C120.667 42 120 42.533 120 44C120 45.667 119.333 46 116 46C112.4 46 112 46.25 112 48.5C112 50.5 111.5 51 109.5 51C107.667 51 107 51.533 107 53C107 54.333 106.333 55 105 55C103.691 55 103 55.667 103 56.93C103 58.171 102.196 58.975 100.75 59.18C99.304 59.386 98.386 60.304 98.18 61.75C97.912 63.64 97.243 64 94 64C90.757 64 90.088 64.36 89.82 66.25C89.614 67.696 88.696 68.614 87.25 68.82C85.804 69.025 85 69.829 85 71.07C85 72.31 84.31 73 83.07 73C81.829 73 81.025 73.804 80.82 75.25C80.614 76.696 79.696 77.614 78.25 77.82C76.804 78.025 76 78.829 76 80.07C76 81.304 75.31 82 74.088 82C72.636 82 72.013 82.964 71.5 86C70.987 89.036 70.364 90 68.912 90C67.539 90 67 90.705 67 92.5C67 94.303 66.462 95 65.07 95C63.829 95 63.025 95.804 62.82 97.25C62.614 98.696 61.696 99.614 60.25 99.82C58.804 100.025 58 100.829 58 102.07C58 103.295 57.311 104 56.114 104C54.644 104 54.078 104.995 53.552 108.5C53.019 112.054 52.47 113 50.939 113C49.537 113 49 113.693 49 115.5C49 117.333 48.467 118 47 118C45.339 118 45 118.667 45 121.93C45 125.245 44.647 125.911 42.75 126.18C40.88 126.446 40.448 127.217 40.193 130.75C39.944 134.186 39.513 135 37.943 135C36.537 135 36 135.691 36 137.5C36 139.333 35.467 140 34 140C32.488 140 31.997 140.67 31.989 142.75C31.964 149.102 30.777 153 28.869 153C27.321 153 27 153.772 27 157.5C27 161.243 26.683 162 25.114 162C23.644 162 23.078 162.995 22.552 166.5C22.019 170.054 21.47 171 19.939 171C18.229 171 17.998 171.737 17.986 177.25C17.97 184.865 17.21 188 15.383 188C14.453 188 13.996 189.229 13.989 191.75C13.968 199.058 12.874 203 10.869 203C9.139 203 9 203.97 9 216C9 228.333 8.897 229 7 229C5.138 229 4.999 229.67 4.989 238.75C4.974 251.954 4.242 256 1.869 256C0.235 256 0 256.818 0 262.5C0 268.189 0.234 269 1.875 269C4.318 269 5 272.494 5 285.008C5 293.926 5.172 294.812 7 295.29C8.872 295.779 9 296.654 9 308.906C9 321.028 9.139 322 10.869 322C12.995 322 13.971 325.987 13.989 334.75C13.999 339.33 14.255 340 16 340C17.795 340 18 340.667 18 346.5C18 352.227 18.227 353 19.906 353C21.44 353 21.949 353.996 22.514 358.103C23.207 363.14 23.255 363.199 26.233 362.603C27.892 362.272 30.769 362 32.625 362C34.822 362 36 361.52 36 360.625C36 358.714 40.523 358 52.625 358C62.053 358 63 357.831 63 356.15C63 354.531 64.148 354.218 72.154 353.65C77.188 353.292 97.213 353 116.654 353C145.978 353 152 352.766 152 351.625C152 349.426 156.804 349 181.625 349C204.333 349 205 348.943 205 347C205 345.052 204.333 345 179.125 345C151.84 345 147 344.605 147 342.375C147 341.368 145.46 340.999 141.25 340.995C138.088 340.992 131.113 340.699 125.75 340.344C117.165 339.775 116 339.477 116 337.849C116 336.166 115.036 335.999 105.25 335.986C93.253 335.971 90 335.416 90 333.383C90 332.453 88.771 331.996 86.25 331.989C78.942 331.968 75 330.874 75 328.869C75 327.235 74.182 327 68.5 327C62.667 327 62 326.795 62 325C62 323.296 61.333 323 57.5 323C53.367 323 53 322.796 53 320.5C53 318.204 52.633 318 48.5 318C44.667 318 44 317.704 44 316C44 314.667 43.333 314 42 314C40.533 314 40 313.333 40 311.5C40 309.667 39.467 309 38 309C36.296 309 36 308.333 36 304.5C36 300.667 36.296 300 38 300C39.467 300 40 299.333 40 297.5C40 295.667 40.533 295 42 295C43.333 295 44 294.333 44 293C44 291.533 44.667 291 46.5 291C48.307 291 49 290.463 49 289.061C49 287.53 49.946 286.981 53.5 286.448C57.005 285.922 58 285.356 58 283.886C58 282.231 58.797 282 64.5 282C70.333 282 71 281.795 71 280C71 278.202 71.667 278 77.594 278C83.222 278 84.26 277.723 84.682 276.107C85.297 273.758 88.818 273 99.125 273C106.333 273 107 272.831 107 271C107 269.067 107.667 269 127 269C145.867 269 147 268.894 147 267.131C147 265.232 150.893 264.037 157.162 264.011C159.486 264.001 159.91 263.492 160.5 260C161.013 256.964 161.636 256 163.088 256C164.829 256 165 255.195 165 247C165 238.667 165.148 238 167 238C168.88 238 169 237.333 169 226.906C169 216.863 169.179 215.766 170.893 215.318C173.078 214.746 174 211.202 174 203.375C174 198.667 174.248 198 176 198C177.798 198 178 197.333 178 191.406C178 185.705 178.264 184.744 179.954 184.302C181.373 183.931 182.09 182.586 182.568 179.395C183.079 175.988 183.651 175 185.114 175C186.683 175 187 174.243 187 170.5C187 166.714 187.308 166 188.939 166C190.47 166 191.019 165.054 191.552 161.5C192.064 158.085 192.661 157 194.026 157C195.337 157 196.003 155.943 196.483 153.098C196.935 150.425 197.75 149.037 199.071 148.692C200.201 148.396 201 147.32 201 146.094C201 144.667 201.637 144 203 144C204.467 144 205 143.333 205 141.5C205 139.667 205.533 139 207 139C208.333 139 209 138.333 209 137C209 135.533 209.667 135 211.5 135C213.5 135 214 134.5 214 132.5C214 130.667 214.533 130 216 130C217.333 130 218 129.333 218 128C218 126.533 218.667 126 220.5 126C222.309 126 223 125.463 223 124.057C223 122.487 223.814 122.056 227.25 121.807C230.783 121.552 231.554 121.12 231.82 119.25C232.089 117.353 232.755 117 236.07 117C239.333 117 240 116.661 240 115C240 113.344 240.667 113 243.875 113C250.57 113 254 111.941 254 109.875C254 108.234 254.811 108 260.5 108C266.333 108 267 107.795 267 106C267 104.148 266.333 104 258 104C249.667 104 249 103.852 249 102C249 100.339 248.333 100 245.07 100C241.755 100 241.089 99.647 240.82 97.75C240.614 96.304 239.696 95.386 238.25 95.18C236.804 94.975 236 94.171 236 92.93C236 91.638 235.308 91 233.906 91C232.688 91 231.604 90.203 231.314 89.092C231.04 88.043 229.957 86.96 228.908 86.686C227.797 86.396 227 85.312 227 84.094C227 82.667 226.363 82 225 82C223.296 82 223 81.333 223 77.5C223 73.767 222.681 73 221.125 73C218.582 73 218 69.512 218 54.281C218 42.751 218.147 41.774 219.954 41.302C221.373 40.931 222.09 39.586 222.568 36.395C223.079 32.988 223.651 32 225.114 32C226.642 32 227 31.254 227 28.07C227 24.755 227.353 24.089 229.25 23.82C230.696 23.614 231.614 22.696 231.82 21.25C232.025 19.804 232.829 19 234.07 19C235.31 19 236 18.31 236 17.07C236 15.829 236.804 15.025 238.25 14.82C239.696 14.614 240.614 13.696 240.82 12.25C241.096 10.303 241.736 10 245.57 10C249.333 10 250 9.699 250 8C250 6.076 250.667 6 267.5 6C284.333 6 285 6.076 285 8C285 9.699 285.667 10 289.43 10C293.264 10 293.904 10.303 294.18 12.25C294.386 13.696 295.304 14.614 296.75 14.82C298.133 15.016 299 15.834 299 16.942C299 18.271 300.048 18.912 302.99 19.382C306.722 19.979 307.021 20.278 307.618 24.01C308.098 27.015 308.718 28 310.128 28C311.361 28 312 28.714 312 30.094C312 31.307 312.796 32.395 313.893 32.682C315.889 33.204 317 36.758 317 42.625C317 45.333 317.395 46 319 46C320.852 46 321 46.667 321 55C321 63.333 320.852 64 319 64C317.202 64 317 64.667 317 70.594C317 76.354 316.746 77.254 314.993 77.712C313.578 78.082 312.803 79.382 312.365 82.118C311.9 85.024 311.274 86 309.872 86C308.542 86 308 86.724 308 88.5C308 90.5 307.5 91 305.5 91C303.667 91 303 91.533 303 93C303 94.309 302.333 95 301.07 95C299.829 95 299.025 95.804 298.82 97.25C298.554 99.12 297.783 99.552 294.25 99.807C290.814 100.056 290 100.487 290 102.057C290 103.837 289.245 104 281 104C272.667 104 272 104.148 272 106C272 107.798 272.667 108 278.594 108C284.222 108 285.26 108.277 285.682 109.893C286.204 111.889 289.758 113 295.625 113C298.3 113 299 113.403 299 114.943C299 116.513 299.814 116.944 303.25 117.193C306.783 117.448 307.554 117.88 307.82 119.75C308.051 121.379 308.81 122 310.57 122C312.296 122 313 122.554 313 123.912C313 125.364 313.964 125.987 317 126.5C320.036 127.013 321 127.636 321 129.088C321 130.31 321.696 131 322.93 131C324.171 131 324.975 131.804 325.18 133.25C325.386 134.696 326.304 135.614 327.75 135.82C329.196 136.025 330 136.829 330 138.07C330 139.304 330.69 140 331.912 140C333.364 140 333.987 140.964 334.5 144C335.013 147.036 335.636 148 337.088 148C338.461 148 339 148.705 339 150.5C339 152.303 339.538 153 340.93 153C342.171 153 342.975 153.804 343.18 155.25C343.386 156.696 344.304 157.614 345.75 157.82C347.647 158.089 348 158.755 348 162.07C348 165.254 348.358 166 349.886 166C351.349 166 351.921 166.988 352.432 170.395C352.91 173.586 353.627 174.931 355.046 175.302C356.736 175.744 357 176.705 357 182.406C357 188.333 357.202 189 359 189C360.798 189 361 189.667 361 195.594C361 201.24 361.274 202.259 362.908 202.686C365.399 203.337 365.97 205.761 365.986 215.75C365.999 223.329 366.163 224 368 224C369.935 224 370 224.667 370 244.5C370 264.019 370.091 265 371.912 265C373.364 265 373.987 265.964 374.5 269C375.013 272.036 375.636 273 377.088 273C378.461 273 379 273.705 379 275.5C379 277.5 379.5 278 381.5 278C383.333 278 384 278.533 384 280C384 281.333 384.667 282 386 282C387.467 282 388 282.667 388 284.5C388 286.5 388.5 287 390.5 287C392.91 287 393 287.233 393 293.5V300L342.75 300.011C291.581 300.022 285 300.306 285 302.506C285 304.268 280.266 305 268.875 305C259.667 305 259 305.135 259 307C259 308.656 258.333 309 255.125 309C252.994 309 249.844 309.281 248.125 309.625C245.27 310.196 245 310.585 245 314.125V318H249.5C253.333 318 254 318.296 254 320C254 321.827 254.67 322.001 261.75 322.011C271.563 322.025 277 322.914 277 324.506C277 325.19 278.406 326.031 280.125 326.375C281.844 326.719 302.769 327 326.625 327H370V331.5V336H365.5C361.714 336 361 336.308 361 337.939C361 339.47 360.054 340.019 356.5 340.552C352.995 341.078 352 341.644 352 343.114C352 344.822 351.153 345 343 345C334.667 345 334 345.148 334 347C334 348.938 334.667 349 355.375 349C378.227 349 383 349.454 383 351.625C383 352.758 387.758 353 410 353C432.351 353 437 352.761 437 351.614C437 350.737 435.345 349.979 432.5 349.552C428.946 349.019 428 348.47 428 346.939C428 345.308 427.286 345 423.5 345C419.721 345 419 344.691 419 343.07C419 341.829 418.196 341.025 416.75 340.82C415.304 340.614 414.386 339.696 414.18 338.25C413.975 336.804 413.171 336 411.93 336C410.538 336 410 335.303 410 333.5C410 331.705 409.461 331 408.088 331C406.644 331 406.014 330.044 405.517 327.098C405.065 324.425 404.25 323.037 402.929 322.692C401.116 322.218 401 321.129 401 304.594C401 288.02 401.109 287 402.886 287C404.356 287 404.922 286.005 405.448 282.5C405.981 278.946 406.53 278 408.061 278C409.463 278 410 277.307 410 275.5C410 273.705 410.539 273 411.912 273C413.357 273 413.986 272.042 414.487 269.075C415.1 265.447 415.447 265.1 419.075 264.487C422.042 263.986 423 263.357 423 261.912C423 260.539 423.705 260 425.5 260C427.275 260 428 259.458 428 258.131C428 255.637 432.048 255.025 448.625 255.011C464.504 254.998 468 255.56 468 258.125C468 259.681 468.767 260 472.5 260C476.333 260 477 260.296 477 262C477 263.467 477.667 264 479.5 264C481.5 264 482 264.5 482 266.5C482 268.333 482.533 269 484 269C485.333 269 486 269.667 486 271C486 272.467 486.667 273 488.5 273C490.5 273 491 273.5 491 275.5C491 277.333 491.533 278 493 278C494.704 278 495 278.667 495 282.5C495 286.233 495.319 287 496.875 287C499.296 287 500 290.493 500 302.5C500 314.507 499.296 318 496.875 318C495.319 318 495 318.767 495 322.5C495 326.243 494.683 327 493.114 327C491.644 327 491.078 327.995 490.552 331.5C490.019 335.054 489.47 336 487.939 336C486.667 336 486 336.688 486 338C486 339.309 485.333 340 484.07 340C482.829 340 482.025 340.804 481.82 342.25C481.554 344.12 480.783 344.552 477.25 344.807C473.911 345.049 473 345.507 473 346.944C473 348.345 471.947 348.931 468.5 349.448C460.36 350.668 464.111 354 473.625 354C476.333 354 477 354.395 477 356C477 357.884 477.667 358 488.5 358C499.333 358 500 358.116 500 360C500 361.433 500.667 362 502.353 362C503.648 362 507.473 362.289 510.853 362.642L517 363.285L517.014 358.892C517.032 353.06 517.928 350 519.617 350C520.508 350 521.004 348.845 521.011 346.75C521.034 339.922 522.172 336 524.131 336C525.744 336 526 335.196 526 330.125C526 322.342 526.94 318 528.625 318C529.672 318 530.003 316.154 530.011 310.25C530.027 299.03 530.851 295 533.131 295C534.919 295 535 293.563 535 262C535 230.437 534.919 229 533.131 229C530.851 229 530.027 224.97 530.011 213.75C530.003 207.823 529.675 206 528.617 206C526.79 206 526.03 202.865 526.014 195.25C526.002 189.817 525.756 189 524.131 189C522.172 189 521.034 185.078 521.011 178.25C521.002 175.67 520.587 175 519 175C517.205 175 517 174.333 517 168.5C517 162.797 516.769 162 515.114 162C513.644 162 513.078 161.005 512.552 157.5C512.019 153.946 511.47 153 509.939 153C508.308 153 508 152.286 508 148.5C508 144.757 507.683 144 506.114 144C504.644 144 504.078 143.005 503.552 139.5C503.128 136.671 502.366 135 501.5 135C500.634 135 499.872 133.329 499.448 130.5C498.936 127.085 498.339 126 496.974 126C495.655 126 494.996 124.934 494.5 122C493.987 118.964 493.364 118 491.912 118C490.539 118 490 117.295 490 115.5C490 113.667 489.467 113 488 113C486.296 113 486 112.333 486 108.5C486 104.367 485.796 104 483.5 104C481.667 104 481 103.467 481 102C481 100.667 480.333 100 479 100C477.533 100 477 99.333 477 97.5C477 95.697 476.462 95 475.07 95C473.829 95 473.025 94.196 472.82 92.75C472.614 91.304 471.696 90.386 470.25 90.18C468.353 89.911 468 89.245 468 85.93C468 82.405 467.743 82 465.5 82C463.667 82 463 81.467 463 80C463 78.667 462.333 78 461 78C459.533 78 459 77.333 459 75.5C459 73.5 458.5 73 456.5 73C454.705 73 454 72.461 454 71.088C454 69.636 453.036 69.013 450 68.5C446.964 67.987 446 67.364 446 65.912C446 64.69 445.304 64 444.07 64C442.829 64 442.025 63.196 441.82 61.75C441.614 60.304 440.696 59.386 439.25 59.18C437.804 58.975 437 58.171 437 56.93C437 55.538 436.303 55 434.5 55C432.667 55 432 54.467 432 53C432 51.667 431.333 51 430 51C428.533 51 428 50.333 428 48.5C428 46.204 427.633 46 423.5 46C419.667 46 419 45.704 419 44C419 42.533 418.333 42 416.5 42C414.705 42 414 41.461 414 40.088C414 38.636 413.036 38.013 410 37.5C407.066 37.004 406 36.345 406 35.026C406 33.661 404.915 33.064 401.5 32.552C398.671 32.128 397 31.366 397 30.5C397 29.634 395.329 28.872 392.5 28.448C388.995 27.922 388 27.356 388 25.886C388 24.317 387.243 24 383.5 24C379.714 24 379 23.692 379 22.061C379 20.53 378.054 19.981 374.5 19.448C370.995 18.922 370 18.356 370 16.886C370 15.231 369.203 15 363.5 15C357.667 15 357 14.795 357 13C357 11.413 356.33 10.998 353.75 10.989C346.922 10.966 343 9.828 343 7.869C343 6.244 342.183 5.998 336.75 5.986C329.245 5.97 326 5.212 326 3.477C326 2.547 323.139 2.019 315.75 1.582C298.251 0.550005 240.765 0.133005 235.5 1.001ZM299 164.094C299 165.346 298.197 166.397 297 166.71C295.175 167.187 295 168.077 294.995 176.867C294.992 182.165 294.699 190.887 294.344 196.25C293.775 204.835 293.477 206 291.849 206C290.226 206 290 206.857 290 213C290 219.193 289.782 220 288.114 220C286.644 220 286.078 220.995 285.552 224.5C285.019 228.054 284.47 229 282.939 229C281.638 229 281 229.689 281 231.094C281 232.346 280.197 233.397 279 233.71C277.893 234 277 235.074 277 236.117C277 237.782 276.189 238 270 238C263.751 238 263 237.793 263 236.07C263 234.829 262.196 234.025 260.75 233.82C259.304 233.614 258.386 232.696 258.18 231.25C257.975 229.804 257.171 229 255.93 229C254.309 229 254 228.279 254 224.5C254 220.767 253.681 220 252.125 220C250.109 220 249 216.584 249 210.375C249 207.667 248.605 207 247 207C245.116 207 245 206.333 245 195.5C245 184.667 244.884 184 243 184C241.202 184 241 183.333 241 177.406C241 171.654 240.745 170.746 239 170.29C237.9 170.002 237 169.171 237 168.442C237 166.378 235.461 165.903 231.061 166.606C227.99 167.097 227 167.712 227 169.128C227 170.333 226.288 171 225 171C223.667 171 223 171.667 223 173C223 174.363 222.333 175 220.906 175C219.654 175 218.603 175.803 218.29 177C218 178.107 216.926 179 215.883 179C214.555 179 214 179.717 214 181.43C214 183.19 213.379 183.949 211.75 184.18C210.304 184.386 209.386 185.304 209.18 186.75C208.975 188.196 208.171 189 206.93 189C205.667 189 205 189.691 205 191C205 192.333 204.333 193 203 193C201.533 193 201 193.667 201 195.5C201 197.307 200.463 198 199.061 198C197.53 198 196.981 198.946 196.448 202.5C195.922 206.005 195.356 207 193.886 207C192.244 207 192 207.789 192 213.094C192 218.197 191.697 219.266 190.137 219.674C188.044 220.222 187.02 227.237 187.007 241.125C186.997 251.503 187.783 255 190.125 255C191.458 255 192 255.722 192 257.5V260H256.5C320.333 260 321 260.021 321 262C321 263.884 321.667 264 332.5 264C343.333 264 344 263.884 344 262C344 260.346 344.667 260 347.859 260H351.718L352.232 251.75C352.515 247.213 352.515 237.088 352.233 229.25C351.77 216.388 351.545 215 349.921 215C348.556 215 347.96 213.916 347.448 210.5C346.922 206.995 346.356 206 344.886 206C343.352 206 343 205.253 343 202C343 198.667 342.667 198 341 198C339.533 198 339 197.333 339 195.5C339 193.705 338.461 193 337.088 193C335.636 193 335.013 192.036 334.5 189C333.987 185.964 333.364 185 331.912 185C330.539 185 330 184.295 330 182.5C330 180.5 329.5 180 327.5 180C325.667 180 325 179.467 325 178C325 176.667 324.333 176 323 176C321.533 176 321 175.333 321 173.5C321 171.5 320.5 171 318.5 171C316.705 171 316 170.461 316 169.088C316 167.636 315.036 167.013 312 166.5C308.964 165.987 308 165.364 308 163.912C308 162.313 307.264 162 303.5 162C299.6 162 299 162.279 299 164.094ZM27 371.5C27 375.264 27.313 376 28.912 376C30.356 376 30.986 376.956 31.483 379.902C31.935 382.575 32.75 383.963 34.071 384.308C35.351 384.643 36 385.686 36 387.406C36 389.333 36.514 390 38 390C39.667 390 40 390.667 40 394C40 397.6 40.25 398 42.5 398C44.796 398 45 398.367 45 402.5C45 406.333 45.296 407 47 407C48.467 407 49 407.667 49 409.5C49 411.295 49.539 412 50.912 412C52.364 412 52.987 412.964 53.5 416C54.013 419.036 54.636 420 56.088 420C57.461 420 58 420.705 58 422.5C58 424.5 58.5 425 60.5 425C62.5 425 63 425.5 63 427.5C63 429.333 63.533 430 65 430C66.333 430 67 430.667 67 432C67 433.303 67.667 434 68.912 434C70.356 434 70.986 434.956 71.483 437.902C71.935 440.575 72.75 441.963 74.071 442.308C75.201 442.604 76 443.68 76 444.906C76 446.473 76.629 447 78.5 447C80.333 447 81 447.533 81 449C81 450.333 81.667 451 83 451C84.467 451 85 451.667 85 453.5C85 455.5 85.5 456 87.5 456C89.295 456 90 456.539 90 457.912C90 459.364 90.964 459.987 94 460.5C97.036 461.013 98 461.636 98 463.088C98 464.333 98.697 465 100 465C101.333 465 102 465.667 102 467C102 468.467 102.667 469 104.5 469C106.5 469 107 469.5 107 471.5C107 473.5 107.5 474 109.5 474C111.295 474 112 474.539 112 475.912C112 477.364 112.964 477.987 116 478.5C119.036 479.013 120 479.636 120 481.088C120 482.461 120.705 483 122.5 483C124.309 483 125 483.537 125 484.943C125 486.513 125.814 486.944 129.25 487.193C132.783 487.448 133.554 487.88 133.82 489.75C134.089 491.647 134.755 492 138.07 492C141.333 492 142 492.339 142 494C142 495.486 142.667 496 144.594 496C146.297 496 147.357 496.649 147.682 497.893C148.189 499.83 151.743 501 157.125 501C159.333 501 160 501.464 160 503C160 504.704 160.667 505 164.5 505C168.259 505 169 505.314 169 506.906C169 508.435 169.989 508.948 174 509.5C178.011 510.052 179 510.565 179 512.094C179 513.773 179.773 514 185.5 514C191.333 514 192 514.205 192 516C192 517.745 192.67 518.001 197.25 518.011C206.013 518.029 210 519.005 210 521.131C210 522.861 210.97 523 223 523C235.104 523 236 523.131 236 524.9C236 526.636 237.135 526.856 249.25 527.467C266.003 528.312 274.3 528.312 290.25 527.469C301.866 526.854 303 526.626 303 524.897C303 523.128 303.911 523 316.5 523C329.033 523 330 522.866 330 521.125C330 519.059 333.43 518 340.125 518C342.758 518 344 517.556 344 516.617C344 514.79 347.135 514.03 354.75 514.014C360.203 514.002 361 513.759 361 512.114C361 510.644 361.995 510.078 365.5 509.552C369.054 509.019 370 508.47 370 506.939C370 505.308 370.714 505 374.5 505C378.333 505 379 504.704 379 503C379 501.488 379.67 500.997 381.75 500.989C388.102 500.964 392 499.777 392 497.869C392 496.542 392.725 496 394.5 496C396.309 496 397 495.463 397 494.057C397 492.487 397.814 492.056 401.25 491.807C404.783 491.552 405.554 491.12 405.82 489.25C406.089 487.353 406.755 487 410.07 487C413.333 487 414 486.661 414 485C414 483.533 414.667 483 416.5 483C418.307 483 419 482.463 419 481.061C419 479.53 419.946 478.981 423.5 478.448C427.005 477.922 428 477.356 428 475.886C428 474.689 428.705 474 429.93 474C431.171 474 431.975 473.196 432.18 471.75C432.386 470.304 433.304 469.386 434.75 469.18C436.196 468.975 437 468.171 437 466.93C437 465.538 437.697 465 439.5 465C441.295 465 442 464.461 442 463.088C442 461.636 442.964 461.013 446 460.5C449.036 459.987 450 459.364 450 457.912C450 456.69 450.696 456 451.93 456C453.171 456 453.975 455.196 454.18 453.75C454.386 452.304 455.304 451.386 456.75 451.18C458.196 450.975 459 450.171 459 448.93C459 447.69 459.69 447 460.93 447C462.171 447 462.975 446.196 463.18 444.75C463.386 443.304 464.304 442.386 465.75 442.18C467.64 441.912 468 441.243 468 438C468 434.757 468.36 434.088 470.25 433.82C471.696 433.614 472.614 432.696 472.82 431.25C473.025 429.804 473.829 429 475.07 429C476.333 429 477 428.309 477 427C477 425.667 477.667 425 479 425C480.467 425 481 424.333 481 422.5C481 420.5 481.5 420 483.5 420C485.75 420 486 419.6 486 416C486 412.667 486.333 412 488 412C489.467 412 490 411.333 490 409.5C490 407.693 490.537 407 491.939 407C493.47 407 494.019 406.054 494.552 402.5C495.058 399.128 495.668 398 496.986 398C498.264 398 498.919 396.908 499.384 394C499.77 391.583 500.568 390 501.398 390C502.261 390 503.024 388.324 503.448 385.5C503.964 382.057 504.551 381 505.948 381C507.344 381 507.931 379.943 508.448 376.5C508.888 373.565 509.623 372 510.561 372C511.429 372 512 371.008 512 369.5C512 367.667 511.467 367 510 367C508.711 367 508 367.667 508 368.875C508 371.323 504.506 372 491.875 372C482.667 372 482 372.135 482 374C482 375.958 481.333 376 450.5 376C420.472 376 419 376.087 419 377.858C419 379.396 417.946 379.825 412.853 380.358C404.865 381.192 125.729 381.199 119.64 380.364C116.007 379.866 115 379.324 115 377.864C115 376.089 113.641 376 86.5 376C58.667 376 58 375.953 58 374C58 372.129 57.333 372 47.625 372C34.494 372 31 371.343 31 368.875C31 367.667 30.289 367 29 367C27.296 367 27 367.667 27 371.5Z" fill="black"/>
</svg>
