<?xml version="1.0" encoding="UTF-8"?>
<!-- Generated by Pixelmator Pro 3.3 -->
<svg width="32" height="32" viewBox="0 0 32 32" xmlns="http://www.w3.org/2000/svg" xmlns:xlink="http://www.w3.org/1999/xlink">
    <path id="Path" fill="#ffffff" stroke="none" d="M 18.50625 21.440624 C 19.768749 21.153126 20.984375 20.653126 22.103157 19.950001 C 22.950031 19.415625 23.206282 18.296906 22.671875 17.446875 C 22.137501 16.596874 21.018782 16.340626 20.168751 16.875 C 17.63125 18.471874 14.365625 18.46875 11.828125 16.875 C 10.978156 16.340626 9.859375 16.596874 9.325 17.446875 C 8.790625 18.293751 9.046875 19.415625 9.89375 19.950001 C 11.0125 20.653126 12.228125 21.153126 13.490625 21.440624 L 10.03125 24.903126 C 9.321906 25.612469 9.321906 26.759344 10.03125 27.46875 C 10.3875 27.821875 10.85 28 11.3125 28 C 11.778125 28 12.240625 27.821875 12.596907 27.46875 L 16 24.065624 L 19.403126 27.46875 C 20.112499 28.178125 21.259375 28.178125 21.96875 27.46875 C 22.678125 26.759375 22.678125 25.609375 21.96875 24.903126 L 18.50625 21.440624 M 16 7.63125 C 17.415657 7.63125 18.565657 8.78125 18.565657 10.196875 C 18.565657 11.609375 17.415657 12.759375 16 12.759375 C 14.587531 12.759375 13.434375 11.609375 13.434375 10.196875 C 13.434375 8.78125 14.587531 7.63125 16 7.63125 Z M 16 16.387501 C 19.415657 16.387501 22.19375 13.609375 22.19375 10.196844 C 22.19375 6.778126 19.415657 4 16 4 C 12.584375 4 9.806281 6.778126 9.806281 10.19375 C 9.806281 13.609375 12.584375 16.387501 16 16.387501 Z"/>
</svg>
