<?xml version="1.0" encoding="UTF-8"?>
<!-- Generated by Pixelmator Pro 3.3 -->
<svg width="32" height="32" viewBox="0 0 32 32" xmlns="http://www.w3.org/2000/svg" xmlns:xlink="http://www.w3.org/1999/xlink">
    <path id="Path" fill="#ffffff" fill-rule="evenodd" stroke="none" d="M 23.085899 8.906551 C 21.205799 7.033249 18.705549 6.00115 16.04175 6 C 10.5529 6 6.08565 10.445599 6.08345 15.909901 C 6.0828 17.656549 6.54125 19.36145 7.41275 20.8645 L 6 26 L 11.279 24.621849 C 12.7335 25.4114 14.37105 25.8276 16.037701 25.82815 L 16.0418 25.82815 C 21.53005 25.82815 25.9977 21.382 26 15.917599 C 26.00095 13.269699 24.966 10.779751 23.085899 8.906551 Z M 16.0418 24.154449 L 16.03845 24.154449 C 14.5533 24.1539 13.0966 23.75675 11.82585 23.006201 L 11.5236 22.827801 L 8.39095 23.64555 L 9.2271 20.6059 L 9.0303 20.2941 C 8.2018 18.9827 7.76415 17.4669 7.76485 15.910351 C 7.76665 11.36875 11.4796 7.6738 16.045151 7.6738 C 18.2558 7.674601 20.334049 8.53245 21.8967 10.08955 C 23.4594 11.646599 24.319401 13.716099 24.318501 15.917149 C 24.3167 20.45915 20.60375 24.154449 16.0418 24.154449 Z M 20.5818 17.98505 C 20.333 17.8612 19.109751 17.2621 18.881651 17.179399 C 18.653601 17.096951 18.48765 17.05555 18.32185 17.30345 C 18.156 17.551399 17.67905 18.1091 17.533899 18.27445 C 17.38875 18.4396 17.243601 18.4604 16.99485 18.336349 C 16.745951 18.21245 15.9443 17.950899 14.99385 17.10725 C 14.2542 16.450649 13.7548 15.63975 13.60965 15.39175 C 13.4645 15.14385 13.59415 15.00985 13.7188 14.8864 C 13.8307 14.7754 13.9676 14.597099 14.09205 14.452499 C 14.21655 14.307949 14.2579 14.204601 14.3409 14.039349 C 14.42385 13.8741 14.3824 13.72945 14.3201 13.6056 C 14.2579 13.48155 13.7603 12.26265 13.55295 11.7668 C 13.351 11.28405 13.14585 11.34935 12.9931 11.341751 C 12.84815 11.3346 12.6821 11.332951 12.5162 11.332951 C 12.35035 11.332951 12.0808 11.394951 11.8527 11.642849 C 11.62465 11.8908 10.98185 12.489899 10.98185 13.708801 C 10.98185 14.92765 11.8734 16.105101 11.99785 16.270399 C 12.1222 16.43565 13.75245 18.93685 16.2484 20.00955 C 16.841949 20.26475 17.30545 20.417 17.666849 20.53125 C 18.263 20.719749 18.805401 20.69305 19.234051 20.629351 C 19.712151 20.55825 20.70615 20.030251 20.9135 19.451851 C 21.12085 18.87335 21.12085 18.377501 21.058649 18.27425 C 20.9965 18.171101 20.83065 18.1091 20.5818 17.98505 Z"/>
</svg>
